<?xml version="1.0" encoding="UTF-8"?>
<svg width="500px" height="500px" viewBox="0 0 500 500" version="1.1" xmlns="http://www.w3.org/2000/svg" xmlns:xlink="http://www.w3.org/1999/xlink">
    <!-- Generator: Sketch 47.1 (45422) - http://www.bohemiancoding.com/sketch -->
    <title>Sprites</title>
    <desc>Created with Sketch.</desc>
    <defs>
        <rect id="path-1" x="0" y="0" width="32" height="32" rx="2"></rect>
        <filter x="-10.9%" y="-7.8%" width="121.9%" height="121.9%" filterUnits="objectBoundingBox" id="filter-2">
            <feOffset dx="0" dy="1" in="SourceAlpha" result="shadowOffsetOuter1"></feOffset>
            <feGaussianBlur stdDeviation="1" in="shadowOffsetOuter1" result="shadowBlurOuter1"></feGaussianBlur>
            <feColorMatrix values="0 0 0 0 0   0 0 0 0 0   0 0 0 0 0  0 0 0 0.223675272 0" type="matrix" in="shadowBlurOuter1"></feColorMatrix>
        </filter>
        <rect id="path-3" x="0" y="0" width="32" height="32" rx="2"></rect>
        <filter x="-10.9%" y="-7.8%" width="121.9%" height="121.9%" filterUnits="objectBoundingBox" id="filter-4">
            <feOffset dx="0" dy="1" in="SourceAlpha" result="shadowOffsetOuter1"></feOffset>
            <feGaussianBlur stdDeviation="1" in="shadowOffsetOuter1" result="shadowBlurOuter1"></feGaussianBlur>
            <feColorMatrix values="0 0 0 0 0   0 0 0 0 0   0 0 0 0 0  0 0 0 0.206748188 0" type="matrix" in="shadowBlurOuter1"></feColorMatrix>
        </filter>
    </defs>
    <g id="Layout" stroke="none" stroke-width="1" fill="none" fill-rule="evenodd">
        <g id="Sprites">
            <path d="M7.5,29.25 C8.11979477,29.25 8.64973738,29.4700499 9.08984375,29.9101562 C9.52995012,30.3502626 9.75,30.8802052 9.75,31.5 C9.75,32.1197948 9.52995012,32.6497374 9.08984375,33.0898438 C8.64973738,33.5299501 8.11979477,33.75 7.5,33.75 C6.88020523,33.75 6.35026262,33.5299501 5.91015625,33.0898438 C5.47004988,32.6497374 5.25,32.1197948 5.25,31.5 C5.25,30.8802052 5.47004988,30.3502626 5.91015625,29.9101562 C6.35026262,29.4700499 6.88020523,29.25 7.5,29.25 Z M13,26 C13.5520861,26 14.0234355,26.1953105 14.4140625,26.5859375 C14.8046895,26.9765645 15,27.4479139 15,28 L15,35 C15,35.5520861 14.8046895,36.0234355 14.4140625,36.4140625 C14.0234355,36.8046895 13.5520861,37 13,37 L2,37 C1.44791391,37 0.976564453,36.8046895 0.5859375,36.4140625 C0.195310547,36.0234355 0,35.5520861 0,35 L0,28 C0,27.4479139 0.195310547,26.9765645 0.5859375,26.5859375 C0.976564453,26.1953105 1.44791391,26 2,26 L3.75,26 L4.1484375,24.9375 C4.24739633,24.6822904 4.4283841,24.4622405 4.69140625,24.2773438 C4.9544284,24.092447 5.22395695,24 5.5,24 L9.5,24 C9.77604305,24 10.0455716,24.092447 10.3085938,24.2773438 C10.5716159,24.4622405 10.7526037,24.6822904 10.8515625,24.9375 L11.25,26 L13,26 Z M7.5,35 C8.46354648,35 9.28775699,34.6575555 9.97265625,33.9726562 C10.6575555,33.287757 11,32.4635465 11,31.5 C11,30.5364535 10.6575555,29.712243 9.97265625,29.0273438 C9.28775699,28.3424445 8.46354648,28 7.5,28 C6.53645352,28 5.71224301,28.3424445 5.02734375,29.0273438 C4.34244449,29.712243 4,30.5364535 4,31.5 C4,32.4635465 4.34244449,33.287757 5.02734375,33.9726562 C5.71224301,34.6575555 6.53645352,35 7.5,35 Z" id="" fill="#FFFFFF" opacity="0.900000036"></path>
            <path d="M10.8125,55.2421875 L0.4375,61.0078125 C0.317707734,61.0755212 0.21484418,61.0833336 0.12890625,61.03125 C0.0429683203,60.9791664 0,60.8854173 0,60.75 L0,49.25 C0,49.1145827 0.0429683203,49.0208336 0.12890625,48.96875 C0.21484418,48.9166664 0.317707734,48.9244788 0.4375,48.9921875 L10.8125,54.7578125 C10.9322923,54.8255212 10.9921875,54.9062495 10.9921875,55 C10.9921875,55.0937505 10.9322923,55.1744788 10.8125,55.2421875 Z" id="" fill="#FFFFFF" opacity="0.900000036"></path>
            <path d="M11,7.75 L11,11.5 C11,11.6354173 10.9505213,11.7526037 10.8515625,11.8515625 C10.7526037,11.9505213 10.6354173,12 10.5,12 L7.5,12 L7.5,9 L5.5,9 L5.5,12 L2.5,12 C2.36458266,12 2.24739633,11.9505213 2.1484375,11.8515625 C2.04947867,11.7526037 2,11.6354173 2,11.5 L2,7.75 C2,7.74479164 2.00130207,7.73697922 2.00390625,7.7265625 C2.00651043,7.71614578 2.0078125,7.70833336 2.0078125,7.703125 L6.5,4 L10.9921875,7.703125 C10.9973959,7.71354172 11,7.72916656 11,7.75 Z M12.7421875,7.2109375 L12.2578125,7.7890625 C12.2161456,7.83593773 12.1614587,7.86458328 12.09375,7.875 L12.0703125,7.875 C12.0026038,7.875 11.9479169,7.85677102 11.90625,7.8203125 L6.5,3.3125 L1.09375,7.8203125 C1.03124969,7.86197937 0.968750312,7.88020836 0.90625,7.875 C0.838541328,7.86458328 0.783854375,7.83593773 0.7421875,7.7890625 L0.2578125,7.2109375 C0.216145625,7.15885391 0.197916641,7.0976566 0.203125,7.02734375 C0.208333359,6.9570309 0.236978906,6.90104187 0.2890625,6.859375 L5.90625,2.1796875 C6.0729175,2.04427016 6.27083219,1.9765625 6.5,1.9765625 C6.72916781,1.9765625 6.9270825,2.04427016 7.09375,2.1796875 L9,3.7734375 L9,2.25 C9,2.17708297 9.02343727,2.11718773 9.0703125,2.0703125 C9.11718773,2.02343727 9.17708297,2 9.25,2 L10.75,2 C10.822917,2 10.8828123,2.02343727 10.9296875,2.0703125 C10.9765627,2.11718773 11,2.17708297 11,2.25 L11,5.4375 L12.7109375,6.859375 C12.7630211,6.90104187 12.7916666,6.9570309 12.796875,7.02734375 C12.8020834,7.0976566 12.7838544,7.15885391 12.7421875,7.2109375 Z" id="" fill="#FFFFFF"></path>
            <path d="M34,7.75 L34,11.5 C34,11.6354173 33.9505213,11.7526037 33.8515625,11.8515625 C33.7526037,11.9505213 33.6354173,12 33.5,12 L30.5,12 L30.5,9 L28.5,9 L28.5,12 L25.5,12 C25.3645827,12 25.2473963,11.9505213 25.1484375,11.8515625 C25.0494787,11.7526037 25,11.6354173 25,11.5 L25,7.75 C25,7.74479164 25.0013021,7.73697922 25.0039062,7.7265625 C25.0065104,7.71614578 25.0078125,7.70833336 25.0078125,7.703125 L29.5,4 L33.9921875,7.703125 C33.9973959,7.71354172 34,7.72916656 34,7.75 Z M35.7421875,7.2109375 L35.2578125,7.7890625 C35.2161456,7.83593773 35.1614587,7.86458328 35.09375,7.875 L35.0703125,7.875 C35.0026038,7.875 34.9479169,7.85677102 34.90625,7.8203125 L29.5,3.3125 L24.09375,7.8203125 C24.0312497,7.86197937 23.9687503,7.88020836 23.90625,7.875 C23.8385413,7.86458328 23.7838544,7.83593773 23.7421875,7.7890625 L23.2578125,7.2109375 C23.2161456,7.15885391 23.1979166,7.0976566 23.203125,7.02734375 C23.2083334,6.9570309 23.2369789,6.90104187 23.2890625,6.859375 L28.90625,2.1796875 C29.0729175,2.04427016 29.2708322,1.9765625 29.5,1.9765625 C29.7291678,1.9765625 29.9270825,2.04427016 30.09375,2.1796875 L32,3.7734375 L32,2.25 C32,2.17708297 32.0234373,2.11718773 32.0703125,2.0703125 C32.1171877,2.02343727 32.177083,2 32.25,2 L33.75,2 C33.822917,2 33.8828123,2.02343727 33.9296875,2.0703125 C33.9765627,2.11718773 34,2.17708297 34,2.25 L34,5.4375 L35.7109375,6.859375 C35.7630211,6.90104187 35.7916666,6.9570309 35.796875,7.02734375 C35.8020834,7.0976566 35.7838544,7.15885391 35.7421875,7.2109375 Z" id="-copy" fill="#EC1C23"></path>
            <path d="M9,78.5 C9,77.5364535 8.65755551,76.712243 7.97265625,76.0273438 C7.28775699,75.3424445 6.46354648,75 5.5,75 C4.53645352,75 3.71224301,75.3424445 3.02734375,76.0273438 C2.34244449,76.712243 2,77.5364535 2,78.5 C2,79.4635465 2.34244449,80.287757 3.02734375,80.9726562 C3.71224301,81.6575555 4.53645352,82 5.5,82 C6.46354648,82 7.28775699,81.6575555 7.97265625,80.9726562 C8.65755551,80.287757 9,79.4635465 9,78.5 Z M13,85 C13,85.2708347 12.9010427,85.5052073 12.703125,85.703125 C12.5052073,85.9010427 12.2708347,86 12,86 C11.7187486,86 11.4843759,85.9010427 11.296875,85.703125 L8.6171875,83.03125 C7.68489117,83.6770866 6.64583906,84 5.5,84 C4.75520461,84 4.04297215,83.8554702 3.36328125,83.5664062 C2.68359035,83.2773423 2.09765871,82.8867212 1.60546875,82.3945312 C1.11327879,81.9023413 0.722657695,81.3164096 0.43359375,80.6367188 C0.144529805,79.9570279 0,79.2447954 0,78.5 C0,77.7552046 0.144529805,77.0429721 0.43359375,76.3632812 C0.722657695,75.6835904 1.11327879,75.0976587 1.60546875,74.6054688 C2.09765871,74.1132788 2.68359035,73.7226577 3.36328125,73.4335938 C4.04297215,73.1445298 4.75520461,73 5.5,73 C6.24479539,73 6.95702785,73.1445298 7.63671875,73.4335938 C8.31640965,73.7226577 8.90234129,74.1132788 9.39453125,74.6054688 C9.88672121,75.0976587 10.2773423,75.6835904 10.5664062,76.3632812 C10.8554702,77.0429721 11,77.7552046 11,78.5 C11,79.6458391 10.6770866,80.6848912 10.03125,81.6171875 L12.7109375,84.296875 C12.9036468,84.4895843 13,84.723957 13,85 Z" id="" fill="#999999"></path>
            <path d="M9,102.5 C9,101.536454 8.65755551,100.712243 7.97265625,100.027344 C7.28775699,99.3424445 6.46354648,99 5.5,99 C4.53645352,99 3.71224301,99.3424445 3.02734375,100.027344 C2.34244449,100.712243 2,101.536454 2,102.5 C2,103.463546 2.34244449,104.287757 3.02734375,104.972656 C3.71224301,105.657556 4.53645352,106 5.5,106 C6.46354648,106 7.28775699,105.657556 7.97265625,104.972656 C8.65755551,104.287757 9,103.463546 9,102.5 Z M13,109 C13,109.270835 12.9010427,109.505207 12.703125,109.703125 C12.5052073,109.901043 12.2708347,110 12,110 C11.7187486,110 11.4843759,109.901043 11.296875,109.703125 L8.6171875,107.03125 C7.68489117,107.677087 6.64583906,108 5.5,108 C4.75520461,108 4.04297215,107.85547 3.36328125,107.566406 C2.68359035,107.277342 2.09765871,106.886721 1.60546875,106.394531 C1.11327879,105.902341 0.722657695,105.31641 0.43359375,104.636719 C0.144529805,103.957028 0,103.244795 0,102.5 C0,101.755205 0.144529805,101.042972 0.43359375,100.363281 C0.722657695,99.6835904 1.11327879,99.0976587 1.60546875,98.6054688 C2.09765871,98.1132788 2.68359035,97.7226577 3.36328125,97.4335938 C4.04297215,97.1445298 4.75520461,97 5.5,97 C6.24479539,97 6.95702785,97.1445298 7.63671875,97.4335938 C8.31640965,97.7226577 8.90234129,98.1132788 9.39453125,98.6054688 C9.88672121,99.0976587 10.2773423,99.6835904 10.5664062,100.363281 C10.8554702,101.042972 11,101.755205 11,102.5 C11,103.645839 10.6770866,104.684891 10.03125,105.617188 L12.7109375,108.296875 C12.9036468,108.489584 13,108.723957 13,109 Z" id="-copy" fill="#000000"></path>
            <path d="M5.28348214,133.573661 C5.28348214,133.928573 5.15792536,134.231584 4.90680804,134.482701 C4.65569071,134.733818 4.35268035,134.859375 3.99776786,134.859375 C3.64955183,134.859375 3.34821556,134.732144 3.09375,134.477679 C2.83928444,134.223213 2.71205357,133.921877 2.71205357,133.573661 C2.71205357,133.218748 2.83761035,132.915738 3.08872768,132.664621 C3.33984501,132.413503 3.64285537,132.287946 3.99776786,132.287946 C4.35268035,132.287946 4.65569071,132.413503 4.90680804,132.664621 C5.15792536,132.915738 5.28348214,133.218748 5.28348214,133.573661 Z M10.2857143,135.642857 C10.2857143,135.99777 10.1601575,136.30078 9.90904018,136.551897 C9.65792285,136.803015 9.35491249,136.928571 9,136.928571 C8.64508751,136.928571 8.34207715,136.803015 8.09095982,136.551897 C7.83984249,136.30078 7.71428571,135.99777 7.71428571,135.642857 C7.71428571,135.287945 7.83984249,134.984934 8.09095982,134.733817 C8.34207715,134.4827 8.64508751,134.357143 9,134.357143 C9.35491249,134.357143 9.65792285,134.4827 9.90904018,134.733817 C10.1601575,134.984934 10.2857143,135.287945 10.2857143,135.642857 Z M3.21428571,128.571429 C3.21428571,128.926341 3.08872893,129.229351 2.83761161,129.480469 C2.58649428,129.731586 2.28348392,129.857143 1.92857143,129.857143 C1.57365894,129.857143 1.27064858,129.731586 1.01953125,129.480469 C0.768413923,129.229351 0.642857143,128.926341 0.642857143,128.571429 C0.642857143,128.216516 0.768413923,127.913506 1.01953125,127.662388 C1.27064858,127.411271 1.57365894,127.285714 1.92857143,127.285714 C2.28348392,127.285714 2.58649428,127.411271 2.83761161,127.662388 C3.08872893,127.913506 3.21428571,128.216516 3.21428571,128.571429 Z M15.2879464,133.573661 C15.2879464,133.921877 15.1607156,134.223213 14.90625,134.477679 C14.6517844,134.732144 14.3504482,134.859375 14.0022321,134.859375 C13.6473197,134.859375 13.3443093,134.733818 13.093192,134.482701 C12.8420746,134.231584 12.7165179,133.928573 12.7165179,133.573661 C12.7165179,133.218748 12.8420746,132.915738 13.093192,132.664621 C13.3443093,132.413503 13.6473197,132.287946 14.0022321,132.287946 C14.3571446,132.287946 14.660155,132.413503 14.9112723,132.664621 C15.1623896,132.915738 15.2879464,133.218748 15.2879464,133.573661 Z M5.60491071,123.569196 C5.60491071,124.011163 5.44754622,124.389507 5.1328125,124.704241 C4.81807878,125.018975 4.43973435,125.176339 3.99776786,125.176339 C3.55580136,125.176339 3.17745693,125.018975 2.86272321,124.704241 C2.5479895,124.389507 2.390625,124.011163 2.390625,123.569196 C2.390625,123.12723 2.5479895,122.748886 2.86272321,122.434152 C3.17745693,122.119418 3.55580136,121.962054 3.99776786,121.962054 C4.43973435,121.962054 4.81807878,122.119418 5.1328125,122.434152 C5.44754622,122.748886 5.60491071,123.12723 5.60491071,123.569196 Z M17.3571429,128.571429 C17.3571429,128.926341 17.2315861,129.229351 16.9804688,129.480469 C16.7293514,129.731586 16.4263411,129.857143 16.0714286,129.857143 C15.7165161,129.857143 15.4135057,129.731586 15.1623884,129.480469 C14.9112711,129.229351 14.7857143,128.926341 14.7857143,128.571429 C14.7857143,128.216516 14.9112711,127.913506 15.1623884,127.662388 C15.4135057,127.411271 15.7165161,127.285714 16.0714286,127.285714 C16.4263411,127.285714 16.7293514,127.411271 16.9804688,127.662388 C17.2315861,127.913506 17.3571429,128.216516 17.3571429,128.571429 Z M10.9285714,121.5 C10.9285714,122.035717 10.7410733,122.49107 10.3660714,122.866071 C9.99106955,123.241073 9.53571696,123.428571 9,123.428571 C8.46428304,123.428571 8.00893045,123.241073 7.63392857,122.866071 C7.2589267,122.49107 7.07142857,122.035717 7.07142857,121.5 C7.07142857,120.964283 7.2589267,120.50893 7.63392857,120.133929 C8.00893045,119.758927 8.46428304,119.571429 9,119.571429 C9.53571696,119.571429 9.99106955,119.758927 10.3660714,120.133929 C10.7410733,120.50893 10.9285714,120.964283 10.9285714,121.5 Z M16.2522321,123.569196 C16.2522321,124.191967 16.0312522,124.722654 15.5892857,125.161272 C15.1473192,125.599891 14.6183067,125.819196 14.0022321,125.819196 C13.3794612,125.819196 12.8487745,125.599891 12.4101562,125.161272 C11.971538,124.722654 11.7522321,124.191967 11.7522321,123.569196 C11.7522321,122.953122 11.971538,122.424109 12.4101562,121.982143 C12.8487745,121.540176 13.3794612,121.319196 14.0022321,121.319196 C14.6183067,121.319196 15.1473192,121.540176 15.5892857,121.982143 C16.0312522,122.424109 16.2522321,122.953122 16.2522321,123.569196 Z" id="" fill="#EC1C23"></path>
            <path d="M8.3984375,154.75 C8.3984375,154.817709 8.37239609,154.877604 8.3203125,154.929688 L4.6796875,158.570312 C4.62760391,158.622396 4.56770867,158.648438 4.5,158.648438 C4.43229133,158.648438 4.37239609,158.622396 4.3203125,158.570312 L0.6796875,154.929688 C0.627603906,154.877604 0.6015625,154.817709 0.6015625,154.75 C0.6015625,154.682291 0.627603906,154.622396 0.6796875,154.570312 L1.0703125,154.179688 C1.12239609,154.127604 1.18229133,154.101562 1.25,154.101562 C1.31770867,154.101562 1.37760391,154.127604 1.4296875,154.179688 L4.5,157.25 L7.5703125,154.179688 C7.62239609,154.127604 7.68229133,154.101562 7.75,154.101562 C7.81770867,154.101562 7.87760391,154.127604 7.9296875,154.179688 L8.3203125,154.570312 C8.37239609,154.622396 8.3984375,154.682291 8.3984375,154.75 Z M8.3984375,151.75 C8.3984375,151.817709 8.37239609,151.877604 8.3203125,151.929688 L4.6796875,155.570312 C4.62760391,155.622396 4.56770867,155.648438 4.5,155.648438 C4.43229133,155.648438 4.37239609,155.622396 4.3203125,155.570312 L0.6796875,151.929688 C0.627603906,151.877604 0.6015625,151.817709 0.6015625,151.75 C0.6015625,151.682291 0.627603906,151.622396 0.6796875,151.570312 L1.0703125,151.179688 C1.12239609,151.127604 1.18229133,151.101562 1.25,151.101562 C1.31770867,151.101562 1.37760391,151.127604 1.4296875,151.179688 L4.5,154.25 L7.5703125,151.179688 C7.62239609,151.127604 7.68229133,151.101562 7.75,151.101562 C7.81770867,151.101562 7.87760391,151.127604 7.9296875,151.179688 L8.3203125,151.570312 C8.37239609,151.622396 8.3984375,151.682291 8.3984375,151.75 Z" id="" fill="#BFBFBF"></path>
            <rect id="Rectangle-18" fill="#3B5998" x="0" y="172" width="24" height="24"></rect>
            <path d="M15.4921875,177.09375 L15.4921875,179.15625 L14.265625,179.15625 C13.8177061,179.15625 13.5156258,179.249999 13.359375,179.4375 C13.2031242,179.625001 13.125,179.906248 13.125,180.28125 L13.125,181.757812 L15.4140625,181.757812 L15.109375,184.070312 L13.125,184.070312 L13.125,190 L10.734375,190 L10.734375,184.070312 L8.7421875,184.070312 L8.7421875,181.757812 L10.734375,181.757812 L10.734375,180.054688 C10.734375,179.085933 11.0052056,178.334638 11.546875,177.800781 C12.0885444,177.266924 12.8098913,177 13.7109375,177 C14.4765663,177 15.0703104,177.03125 15.4921875,177.09375 Z" id="" fill="#FFFFFF"></path>
            <rect id="Rectangle-18-Copy" fill="#D34836" x="32" y="172" width="24" height="24"></rect>
            <path d="M46.2265625,184.132812 C46.2265625,185.216151 46.0000023,186.180985 45.546875,187.027344 C45.0937477,187.873702 44.4479209,188.535154 43.609375,189.011719 C42.7708291,189.488284 41.8099012,189.726562 40.7265625,189.726562 C39.950517,189.726562 39.2083369,189.575522 38.5,189.273438 C37.7916631,188.971353 37.1822942,188.565107 36.671875,188.054688 C36.1614558,187.544268 35.7552098,186.934899 35.453125,186.226562 C35.1510402,185.518226 35,184.776046 35,184 C35,183.223954 35.1510402,182.481774 35.453125,181.773438 C35.7552098,181.065101 36.1614558,180.455732 36.671875,179.945312 C37.1822942,179.434893 37.7916631,179.028647 38.5,178.726562 C39.2083369,178.424478 39.950517,178.273438 40.7265625,178.273438 C42.2161533,178.273438 43.4947863,178.773433 44.5625,179.773438 L43.0078125,181.265625 C42.3984345,180.67708 41.6380254,180.382812 40.7265625,180.382812 C40.0859343,180.382812 39.4934923,180.544269 38.9492188,180.867188 C38.4049452,181.190106 37.9739599,181.628903 37.65625,182.183594 C37.3385401,182.738284 37.1796875,183.343747 37.1796875,184 C37.1796875,184.656253 37.3385401,185.261716 37.65625,185.816406 C37.9739599,186.371097 38.4049452,186.809894 38.9492188,187.132812 C39.4934923,187.455731 40.0859343,187.617188 40.7265625,187.617188 C41.1588563,187.617188 41.5559878,187.557292 41.9179688,187.4375 C42.2799497,187.317708 42.5781238,187.16797 42.8125,186.988281 C43.0468762,186.808593 43.2513012,186.604168 43.4257812,186.375 C43.6002613,186.145832 43.7278642,185.929689 43.8085938,185.726562 C43.8893233,185.523436 43.9453123,185.33073 43.9765625,185.148438 L40.7265625,185.148438 L40.7265625,183.179688 L46.1328125,183.179688 C46.1953128,183.507814 46.2265625,183.825519 46.2265625,184.132812 Z M53,183.179688 L53,184.820312 L51.3671875,184.820312 L51.3671875,186.453125 L49.7265625,186.453125 L49.7265625,184.820312 L48.09375,184.820312 L48.09375,183.179688 L49.7265625,183.179688 L49.7265625,181.546875 L51.3671875,181.546875 L51.3671875,183.179688 L53,183.179688 Z" id="" fill="#FFFFFF"></path>
            <rect id="Rectangle-18-Copy-2" fill="#0084B4" x="64" y="172" width="24" height="24"></rect>
            <path d="M82.65625,180.1875 C82.3072899,180.697919 81.8854191,181.132811 81.390625,181.492188 C81.3958334,181.565105 81.3984375,181.674478 81.3984375,181.820312 C81.3984375,182.497399 81.2994802,183.173174 81.1015625,183.847656 C80.9036448,184.522139 80.6028666,185.169268 80.1992188,185.789062 C79.7955709,186.408857 79.315107,186.957029 78.7578125,187.433594 C78.200518,187.910159 77.5286498,188.290363 76.7421875,188.574219 C75.9557252,188.858074 75.1145878,189 74.21875,189 C72.8072846,189 71.5156309,188.6224 70.34375,187.867188 C70.5260426,187.888021 70.7291655,187.898438 70.953125,187.898438 C72.1250059,187.898438 73.1692662,187.539066 74.0859375,186.820312 C73.5390598,186.809896 73.0494813,186.641929 72.6171875,186.316406 C72.1848937,185.990884 71.8880216,185.575523 71.7265625,185.070312 C71.8984384,185.096354 72.0572909,185.109375 72.203125,185.109375 C72.4270845,185.109375 72.6484364,185.080729 72.8671875,185.023438 C72.2838512,184.903645 71.8007832,184.613284 71.4179688,184.152344 C71.0351543,183.691404 70.84375,183.156253 70.84375,182.546875 L70.84375,182.515625 C71.1979184,182.713543 71.578123,182.820312 71.984375,182.835938 C71.6406233,182.60677 71.3671885,182.307294 71.1640625,181.9375 C70.9609365,181.567706 70.859375,181.166669 70.859375,180.734375 C70.859375,180.276039 70.9739572,179.851564 71.203125,179.460938 C71.8333365,180.236983 72.6002559,180.858071 73.5039062,181.324219 C74.4075566,181.790367 75.3749948,182.049479 76.40625,182.101562 C76.3645831,181.903645 76.34375,181.710938 76.34375,181.523438 C76.34375,180.825517 76.5898413,180.230471 77.0820312,179.738281 C77.5742212,179.246091 78.1692673,179 78.8671875,179 C79.5963578,179 80.210935,179.265622 80.7109375,179.796875 C81.2786487,179.687499 81.8124975,179.484376 82.3125,179.1875 C82.1197907,179.786461 81.7500027,180.249998 81.203125,180.578125 C81.6875024,180.526041 82.1718726,180.395834 82.65625,180.1875 Z" id="" fill="#FFFFFF"></path>
            <rect id="Rectangle-18-Copy-4" fill="#008FE5" x="96" y="172" width="24" height="24"></rect>
            <path d="M111.386,180.558 L106.066,187.39 L110.532,187.39 C110.784001,187.39 110.989333,187.462333 111.148,187.607 C111.306667,187.751667 111.386,187.945332 111.386,188.188 C111.386,188.421335 111.304334,188.614999 111.141,188.769 C110.977666,188.923001 110.774668,189 110.532,189 L104.386,189 C104.143332,189 103.933334,188.916001 103.756,188.748 C103.578666,188.579999 103.49,188.388668 103.49,188.174 C103.49,187.996666 103.555333,187.819334 103.686,187.642 L108.992,180.81 L104.946,180.81 C104.693999,180.81 104.488667,180.735334 104.33,180.586 C104.171333,180.436666 104.092,180.240668 104.092,179.998 C104.092,179.764666 104.173666,179.573334 104.337,179.424 C104.500334,179.274666 104.703332,179.2 104.946,179.2 L110.672,179.2 C110.896001,179.2 111.103666,179.279333 111.295,179.438 C111.486334,179.596667 111.582,179.792665 111.582,180.026 C111.582,180.203334 111.516667,180.380666 111.386,180.558 Z" id="Z" fill="#FFFFFF"></path>
            <rect id="Rectangle-18-Copy-3" fill="#999999" x="128" y="172" width="24" height="24"></rect>
            <path d="M147,182.546875 L147,188.75 C147,189.093752 146.877605,189.38802 146.632812,189.632812 C146.38802,189.877605 146.093752,190 145.75,190 L134.25,190 C133.906248,190 133.61198,189.877605 133.367188,189.632812 C133.122395,189.38802 133,189.093752 133,188.75 L133,182.546875 C133.229168,182.802085 133.492186,183.028645 133.789062,183.226562 C135.674489,184.507819 136.968746,185.406247 137.671875,185.921875 C137.968751,186.140626 138.209634,186.311197 138.394531,186.433594 C138.579428,186.55599 138.825519,186.680989 139.132812,186.808594 C139.440106,186.936199 139.726561,187 139.992188,187 L140.007812,187 C140.273439,187 140.559894,186.936199 140.867188,186.808594 C141.174481,186.680989 141.420572,186.55599 141.605469,186.433594 C141.790366,186.311197 142.031249,186.140626 142.328125,185.921875 C143.213546,185.281247 144.510408,184.382818 146.21875,183.226562 C146.515626,183.023436 146.776041,182.796876 147,182.546875 Z M147,180.25 C147,180.66146 146.872397,181.054686 146.617188,181.429688 C146.361978,181.804689 146.044273,182.124999 145.664062,182.390625 C143.705719,183.750007 142.486982,184.596352 142.007812,184.929688 C141.955729,184.966146 141.845053,185.045572 141.675781,185.167969 C141.50651,185.290365 141.365886,185.389323 141.253906,185.464844 C141.141927,185.540365 141.006511,185.625 140.847656,185.71875 C140.688801,185.8125 140.539063,185.882812 140.398438,185.929688 C140.257812,185.976563 140.127605,186 140.007812,186 L139.992188,186 C139.872395,186 139.742188,185.976563 139.601562,185.929688 C139.460937,185.882812 139.311199,185.8125 139.152344,185.71875 C138.993489,185.625 138.858073,185.540365 138.746094,185.464844 C138.634114,185.389323 138.49349,185.290365 138.324219,185.167969 C138.154947,185.045572 138.044271,184.966146 137.992188,184.929688 C137.518227,184.596352 136.835942,184.121097 135.945312,183.503906 C135.054683,182.886716 134.520834,182.515626 134.34375,182.390625 C134.020832,182.171874 133.716147,181.871096 133.429688,181.488281 C133.143228,181.105467 133,180.750002 133,180.421875 C133,180.015623 133.108072,179.677085 133.324219,179.40625 C133.540366,179.135415 133.848956,179 134.25,179 L145.75,179 C146.088543,179 146.381509,179.122395 146.628906,179.367188 C146.876303,179.61198 147,179.906248 147,180.25 Z" id="" fill="#FFFFFF"></path>
            <rect id="Rectangle-18-Copy-9" fill="#777777" x="0" y="206" width="24" height="24"></rect>
            <path d="M15.4921875,211.09375 L15.4921875,213.15625 L14.265625,213.15625 C13.8177061,213.15625 13.5156258,213.249999 13.359375,213.4375 C13.2031242,213.625001 13.125,213.906248 13.125,214.28125 L13.125,215.757812 L15.4140625,215.757812 L15.109375,218.070312 L13.125,218.070312 L13.125,224 L10.734375,224 L10.734375,218.070312 L8.7421875,218.070312 L8.7421875,215.757812 L10.734375,215.757812 L10.734375,214.054688 C10.734375,213.085933 11.0052056,212.334638 11.546875,211.800781 C12.0885444,211.266924 12.8098913,211 13.7109375,211 C14.4765663,211 15.0703104,211.03125 15.4921875,211.09375 Z" id="-copy" fill="#FFFFFF"></path>
            <rect id="Rectangle-18-Copy-8" fill="#777777" x="32" y="206" width="24" height="24"></rect>
            <path d="M46.2265625,218.132812 C46.2265625,219.216151 46.0000023,220.180985 45.546875,221.027344 C45.0937477,221.873702 44.4479209,222.535154 43.609375,223.011719 C42.7708291,223.488284 41.8099012,223.726562 40.7265625,223.726562 C39.950517,223.726562 39.2083369,223.575522 38.5,223.273438 C37.7916631,222.971353 37.1822942,222.565107 36.671875,222.054688 C36.1614558,221.544268 35.7552098,220.934899 35.453125,220.226562 C35.1510402,219.518226 35,218.776046 35,218 C35,217.223954 35.1510402,216.481774 35.453125,215.773438 C35.7552098,215.065101 36.1614558,214.455732 36.671875,213.945312 C37.1822942,213.434893 37.7916631,213.028647 38.5,212.726562 C39.2083369,212.424478 39.950517,212.273438 40.7265625,212.273438 C42.2161533,212.273438 43.4947863,212.773433 44.5625,213.773438 L43.0078125,215.265625 C42.3984345,214.67708 41.6380254,214.382812 40.7265625,214.382812 C40.0859343,214.382812 39.4934923,214.544269 38.9492188,214.867188 C38.4049452,215.190106 37.9739599,215.628903 37.65625,216.183594 C37.3385401,216.738284 37.1796875,217.343747 37.1796875,218 C37.1796875,218.656253 37.3385401,219.261716 37.65625,219.816406 C37.9739599,220.371097 38.4049452,220.809894 38.9492188,221.132812 C39.4934923,221.455731 40.0859343,221.617188 40.7265625,221.617188 C41.1588563,221.617188 41.5559878,221.557292 41.9179688,221.4375 C42.2799497,221.317708 42.5781238,221.16797 42.8125,220.988281 C43.0468762,220.808593 43.2513012,220.604168 43.4257812,220.375 C43.6002613,220.145832 43.7278642,219.929689 43.8085938,219.726562 C43.8893233,219.523436 43.9453123,219.33073 43.9765625,219.148438 L40.7265625,219.148438 L40.7265625,217.179688 L46.1328125,217.179688 C46.1953128,217.507814 46.2265625,217.825519 46.2265625,218.132812 Z M53,217.179688 L53,218.820312 L51.3671875,218.820312 L51.3671875,220.453125 L49.7265625,220.453125 L49.7265625,218.820312 L48.09375,218.820312 L48.09375,217.179688 L49.7265625,217.179688 L49.7265625,215.546875 L51.3671875,215.546875 L51.3671875,217.179688 L53,217.179688 Z" id="-copy" fill="#FFFFFF"></path>
            <rect id="Rectangle-18-Copy-7" fill="#777777" x="64" y="206" width="24" height="24"></rect>
            <path d="M82.65625,214.1875 C82.3072899,214.697919 81.8854191,215.132811 81.390625,215.492188 C81.3958334,215.565105 81.3984375,215.674478 81.3984375,215.820312 C81.3984375,216.497399 81.2994802,217.173174 81.1015625,217.847656 C80.9036448,218.522139 80.6028666,219.169268 80.1992188,219.789062 C79.7955709,220.408857 79.315107,220.957029 78.7578125,221.433594 C78.200518,221.910159 77.5286498,222.290363 76.7421875,222.574219 C75.9557252,222.858074 75.1145878,223 74.21875,223 C72.8072846,223 71.5156309,222.6224 70.34375,221.867188 C70.5260426,221.888021 70.7291655,221.898438 70.953125,221.898438 C72.1250059,221.898438 73.1692662,221.539066 74.0859375,220.820312 C73.5390598,220.809896 73.0494813,220.641929 72.6171875,220.316406 C72.1848937,219.990884 71.8880216,219.575523 71.7265625,219.070312 C71.8984384,219.096354 72.0572909,219.109375 72.203125,219.109375 C72.4270845,219.109375 72.6484364,219.080729 72.8671875,219.023438 C72.2838512,218.903645 71.8007832,218.613284 71.4179688,218.152344 C71.0351543,217.691404 70.84375,217.156253 70.84375,216.546875 L70.84375,216.515625 C71.1979184,216.713543 71.578123,216.820312 71.984375,216.835938 C71.6406233,216.60677 71.3671885,216.307294 71.1640625,215.9375 C70.9609365,215.567706 70.859375,215.166669 70.859375,214.734375 C70.859375,214.276039 70.9739572,213.851564 71.203125,213.460938 C71.8333365,214.236983 72.6002559,214.858071 73.5039062,215.324219 C74.4075566,215.790367 75.3749948,216.049479 76.40625,216.101562 C76.3645831,215.903645 76.34375,215.710938 76.34375,215.523438 C76.34375,214.825517 76.5898413,214.230471 77.0820312,213.738281 C77.5742212,213.246091 78.1692673,213 78.8671875,213 C79.5963578,213 80.210935,213.265622 80.7109375,213.796875 C81.2786487,213.687499 81.8124975,213.484376 82.3125,213.1875 C82.1197907,213.786461 81.7500027,214.249998 81.203125,214.578125 C81.6875024,214.526041 82.1718726,214.395834 82.65625,214.1875 Z" id="-copy" fill="#FFFFFF"></path>
            <rect id="Rectangle-18-Copy-6" fill="#777777" x="96" y="206" width="24" height="24"></rect>
            <path d="M111.386,214.558 L106.066,221.39 L110.532,221.39 C110.784001,221.39 110.989333,221.462333 111.148,221.607 C111.306667,221.751667 111.386,221.945332 111.386,222.188 C111.386,222.421335 111.304334,222.614999 111.141,222.769 C110.977666,222.923001 110.774668,223 110.532,223 L104.386,223 C104.143332,223 103.933334,222.916001 103.756,222.748 C103.578666,222.579999 103.49,222.388668 103.49,222.174 C103.49,221.996666 103.555333,221.819334 103.686,221.642 L108.992,214.81 L104.946,214.81 C104.693999,214.81 104.488667,214.735334 104.33,214.586 C104.171333,214.436666 104.092,214.240668 104.092,213.998 C104.092,213.764666 104.173666,213.573334 104.337,213.424 C104.500334,213.274666 104.703332,213.2 104.946,213.2 L110.672,213.2 C110.896001,213.2 111.103666,213.279333 111.295,213.438 C111.486334,213.596667 111.582,213.792665 111.582,214.026 C111.582,214.203334 111.516667,214.380666 111.386,214.558 Z" id="Z-Copy" fill="#FFFFFF"></path>
            <rect id="Rectangle-18-Copy-5" fill="#777777" x="128" y="206" width="24" height="24"></rect>
            <path d="M147,216.546875 L147,222.75 C147,223.093752 146.877605,223.38802 146.632812,223.632812 C146.38802,223.877605 146.093752,224 145.75,224 L134.25,224 C133.906248,224 133.61198,223.877605 133.367188,223.632812 C133.122395,223.38802 133,223.093752 133,222.75 L133,216.546875 C133.229168,216.802085 133.492186,217.028645 133.789062,217.226562 C135.674489,218.507819 136.968746,219.406247 137.671875,219.921875 C137.968751,220.140626 138.209634,220.311197 138.394531,220.433594 C138.579428,220.55599 138.825519,220.680989 139.132812,220.808594 C139.440106,220.936199 139.726561,221 139.992188,221 L140.007812,221 C140.273439,221 140.559894,220.936199 140.867188,220.808594 C141.174481,220.680989 141.420572,220.55599 141.605469,220.433594 C141.790366,220.311197 142.031249,220.140626 142.328125,219.921875 C143.213546,219.281247 144.510408,218.382818 146.21875,217.226562 C146.515626,217.023436 146.776041,216.796876 147,216.546875 Z M147,214.25 C147,214.66146 146.872397,215.054686 146.617188,215.429688 C146.361978,215.804689 146.044273,216.124999 145.664062,216.390625 C143.705719,217.750007 142.486982,218.596352 142.007812,218.929688 C141.955729,218.966146 141.845053,219.045572 141.675781,219.167969 C141.50651,219.290365 141.365886,219.389323 141.253906,219.464844 C141.141927,219.540365 141.006511,219.625 140.847656,219.71875 C140.688801,219.8125 140.539063,219.882812 140.398438,219.929688 C140.257812,219.976563 140.127605,220 140.007812,220 L139.992188,220 C139.872395,220 139.742188,219.976563 139.601562,219.929688 C139.460937,219.882812 139.311199,219.8125 139.152344,219.71875 C138.993489,219.625 138.858073,219.540365 138.746094,219.464844 C138.634114,219.389323 138.49349,219.290365 138.324219,219.167969 C138.154947,219.045572 138.044271,218.966146 137.992188,218.929688 C137.518227,218.596352 136.835942,218.121097 135.945312,217.503906 C135.054683,216.886716 134.520834,216.515626 134.34375,216.390625 C134.020832,216.171874 133.716147,215.871096 133.429688,215.488281 C133.143228,215.105467 133,214.750002 133,214.421875 C133,214.015623 133.108072,213.677085 133.324219,213.40625 C133.540366,213.135415 133.848956,213 134.25,213 L145.75,213 C146.088543,213 146.381509,213.122395 146.628906,213.367188 C146.876303,213.61198 147,213.906248 147,214.25 Z" id="-copy" fill="#FFFFFF"></path>
            <rect id="Rectangle-6" fill="#EC1C23" x="0" y="240" width="32" height="32" rx="16"></rect>
            <path d="M14.5390625,259.058594 C14.5390625,257.964838 14.6718737,257.093753 14.9375,256.445312 C15.2031263,255.796872 15.6894496,255.158206 16.3964844,254.529297 C17.1035192,253.900387 17.5742176,253.388674 17.8085938,252.994141 C18.0429699,252.599607 18.1601562,252.183596 18.1601562,251.746094 C18.1601562,250.425775 17.5507873,249.765625 16.3320312,249.765625 C15.7539034,249.765625 15.2910174,249.943358 14.9433594,250.298828 C14.5957014,250.654299 14.4140626,251.144528 14.3984375,251.769531 L11,251.769531 C11.0156251,250.277336 11.4980421,249.109379 12.4472656,248.265625 C13.3964891,247.421871 14.691398,247 16.3320312,247 C17.9882895,247 19.2734329,247.400387 20.1875,248.201172 C21.1015671,249.001957 21.5585938,250.132805 21.5585938,251.59375 C21.5585938,252.257816 21.4101577,252.884763 21.1132812,253.474609 C20.8164048,254.064456 20.2968787,254.718746 19.5546875,255.4375 L18.6054688,256.339844 C18.0117158,256.910159 17.6718754,257.578121 17.5859375,258.34375 L17.5390625,259.058594 L14.5390625,259.058594 Z M14.1992188,262.65625 C14.1992188,262.13281 14.3769513,261.701174 14.7324219,261.361328 C15.0878924,261.021483 15.542966,260.851562 16.0976562,260.851562 C16.6523465,260.851562 17.1074201,261.021483 17.4628906,261.361328 C17.8183612,261.701174 17.9960938,262.13281 17.9960938,262.65625 C17.9960938,263.171878 17.8222674,263.597655 17.4746094,263.933594 C17.1269514,264.269533 16.6679716,264.4375 16.0976562,264.4375 C15.5273409,264.4375 15.0683611,264.269533 14.7207031,263.933594 C14.3730451,263.597655 14.1992188,263.171878 14.1992188,262.65625 Z" id="?" fill="#FFFFFF"></path>
            <rect id="Rectangle-6-Copy-3" fill="#1CA7EC" x="0" y="282" width="32" height="32" rx="16"></rect>
            <rect id="Rectangle-6-Copy-4" fill="#C4C4C4" x="0" y="324" width="24" height="24" rx="12"></rect>
            <path d="M23,296.5 C23,296.635417 22.9505213,296.752604 22.8515625,296.851562 L18.8515625,300.851562 C18.7526037,300.950521 18.6354173,301 18.5,301 C18.3645827,301 18.2473963,300.950521 18.1484375,300.851562 C18.0494787,300.752604 18,300.635417 18,300.5 L18,298.5 L16.25,298.5 C15.7395808,298.5 15.2825541,298.515625 14.8789062,298.546875 C14.4752584,298.578125 14.0742207,298.634114 13.6757812,298.714844 C13.2773418,298.795573 12.9309911,298.906249 12.6367188,299.046875 C12.3424464,299.187501 12.0677096,299.368488 11.8125,299.589844 C11.5572904,299.811199 11.3489591,300.074217 11.1875,300.378906 C11.0260409,300.683595 10.89974,301.044269 10.8085938,301.460938 C10.7174475,301.877606 10.671875,302.348956 10.671875,302.875 C10.671875,303.16146 10.6848957,303.481769 10.7109375,303.835938 C10.7109375,303.867188 10.7174479,303.928385 10.7304688,304.019531 C10.7434896,304.110678 10.75,304.179687 10.75,304.226562 C10.75,304.304688 10.7278648,304.369791 10.6835938,304.421875 C10.6393227,304.473959 10.5781254,304.5 10.5,304.5 C10.4166663,304.5 10.3437503,304.45573 10.28125,304.367188 C10.2447915,304.320312 10.2109377,304.263021 10.1796875,304.195312 C10.1484373,304.127604 10.1132814,304.04948 10.0742188,303.960938 C10.0351561,303.872395 10.0078126,303.809896 9.9921875,303.773438 C9.33072586,302.289055 9,301.114588 9,300.25 C9,299.213536 9.13801945,298.346358 9.4140625,297.648438 C10.2578167,295.549469 12.5364398,294.5 16.25,294.5 L18,294.5 L18,292.5 C18,292.364583 18.0494787,292.247396 18.1484375,292.148438 C18.2473963,292.049479 18.3645827,292 18.5,292 C18.6354173,292 18.7526037,292.049479 18.8515625,292.148438 L22.8515625,296.148438 C22.9505213,296.247396 23,296.364583 23,296.5 Z" id="" fill="#FFFFFF"></path>
            <path d="M17,339.929688 C17,340.497399 16.8372412,340.984373 16.5117188,341.390625 C16.1861963,341.796877 15.7942731,342 15.3359375,342 L8.6640625,342 C8.20572687,342 7.81380371,341.796877 7.48828125,341.390625 C7.16275879,340.984373 7,340.497399 7,339.929688 C7,339.486977 7.0221352,339.069012 7.06640625,338.675781 C7.1106773,338.28255 7.19270773,337.886721 7.3125,337.488281 C7.43229227,337.089842 7.58463449,336.748699 7.76953125,336.464844 C7.95442801,336.180988 8.19921723,335.94922 8.50390625,335.769531 C8.80859527,335.589843 9.15885219,335.5 9.5546875,335.5 C10.2369826,336.16667 11.0520786,336.5 12,336.5 C12.9479214,336.5 13.7630174,336.16667 14.4453125,335.5 C14.8411478,335.5 15.1914047,335.589843 15.4960938,335.769531 C15.8007828,335.94922 16.045572,336.180988 16.2304688,336.464844 C16.4153655,336.748699 16.5677077,337.089842 16.6875,337.488281 C16.8072923,337.886721 16.8893227,338.28255 16.9335938,338.675781 C16.9778648,339.069012 17,339.486977 17,339.929688 Z M15,333 C15,333.828129 14.7070342,334.535153 14.1210938,335.121094 C13.5351533,335.707034 12.8281291,336 12,336 C11.1718709,336 10.4648467,335.707034 9.87890625,335.121094 C9.29296582,334.535153 9,333.828129 9,333 C9,332.171871 9.29296582,331.464847 9.87890625,330.878906 C10.4648467,330.292966 11.1718709,330 12,330 C12.8281291,330 13.5351533,330.292966 14.1210938,330.878906 C14.7070342,331.464847 15,332.171871 15,333 Z" id="" fill="#FFFFFF"></path>
            <path d="M2,368.5 C2,368.364583 1.95052133,368.247396 1.8515625,368.148438 C1.75260367,368.049479 1.63541734,368 1.5,368 C1.36458266,368 1.24739633,368.049479 1.1484375,368.148438 C1.04947867,368.247396 1,368.364583 1,368.5 C1,368.635417 1.04947867,368.752604 1.1484375,368.851562 C1.24739633,368.950521 1.36458266,369 1.5,369 C1.63541734,369 1.75260367,368.950521 1.8515625,368.851562 C1.95052133,368.752604 2,368.635417 2,368.5 Z M11,364 C11,363.734374 10.8984385,363.501303 10.6953125,363.300781 C10.4921865,363.100259 10.260418,363 10,363 L7.25,363 C7.25,362.697915 7.37499875,362.282555 7.625,361.753906 C7.87500125,361.225258 8,360.807293 8,360.5 C8,359.989581 7.9166675,359.61198 7.75,359.367188 C7.5833325,359.122395 7.2500025,359 6.75,359 C6.61458266,359.135417 6.51562531,359.356769 6.453125,359.664062 C6.39062469,359.971356 6.3111984,360.298175 6.21484375,360.644531 C6.1184891,360.990887 5.96354273,361.276041 5.75,361.5 C5.63541609,361.619792 5.43489727,361.856769 5.1484375,362.210938 C5.12760406,362.236979 5.06770883,362.315104 4.96875,362.445312 C4.86979117,362.575521 4.78776074,362.682291 4.72265625,362.765625 C4.65755176,362.848959 4.56770891,362.959635 4.453125,363.097656 C4.33854109,363.235678 4.23437547,363.35026 4.140625,363.441406 C4.04687453,363.532553 3.94661512,363.625 3.83984375,363.71875 C3.73307238,363.8125 3.62890676,363.882812 3.52734375,363.929688 C3.42578074,363.976563 3.33333375,364 3.25,364 L3,364 L3,369 L3.25,369 C3.31770867,369 3.3997391,369.007812 3.49609375,369.023438 C3.5924484,369.039063 3.67838504,369.055989 3.75390625,369.074219 C3.82942746,369.092448 3.9283848,369.121094 4.05078125,369.160156 C4.1731777,369.199219 4.26432262,369.229167 4.32421875,369.25 C4.38411488,369.270833 4.47656187,369.303385 4.6015625,369.347656 C4.72656313,369.391927 4.8020832,369.419271 4.828125,369.429688 C5.92708883,369.809898 6.81770492,370 7.5,370 L8.4453125,370 C9.4453175,370 9.9453125,369.565109 9.9453125,368.695312 C9.9453125,368.559895 9.9322918,368.414063 9.90625,368.257812 C10.0625008,368.174479 10.1861975,368.037761 10.2773438,367.847656 C10.36849,367.657551 10.4140625,367.466147 10.4140625,367.273438 C10.4140625,367.080728 10.367188,366.901043 10.2734375,366.734375 C10.5494805,366.473957 10.6875,366.164064 10.6875,365.804688 C10.6875,365.674479 10.6614586,365.529949 10.609375,365.371094 C10.5572914,365.212239 10.4921879,365.088542 10.4140625,365 C10.58073,364.994792 10.7200515,364.872397 10.8320312,364.632812 C10.944011,364.393228 11,364.182293 11,364 Z M12,363.992188 C12,364.455731 11.8723971,364.880206 11.6171875,365.265625 C11.6640627,365.437501 11.6875,365.617187 11.6875,365.804688 C11.6875,366.205731 11.5885427,366.580727 11.390625,366.929688 C11.4062501,367.039063 11.4140625,367.151041 11.4140625,367.265625 C11.4140625,367.791669 11.2578141,368.255206 10.9453125,368.65625 C10.9505209,369.380212 10.7291689,369.951821 10.28125,370.371094 C9.83333109,370.790367 9.24219117,371 8.5078125,371 L7.5,371 C6.9999975,371 6.50651285,370.941407 6.01953125,370.824219 C5.53254965,370.707031 4.9687532,370.536459 4.328125,370.3125 C3.72395531,370.104166 3.36458391,370 3.25,370 L1,370 C0.723956953,370 0.488282227,369.902345 0.29296875,369.707031 C0.0976552734,369.511718 0,369.276043 0,369 L0,364 C0,363.723957 0.0976552734,363.488282 0.29296875,363.292969 C0.488282227,363.097655 0.723956953,363 1,363 L3.140625,363 C3.32812594,362.874999 3.6848932,362.471358 4.2109375,361.789062 C4.51302234,361.398436 4.79166539,361.065106 5.046875,360.789062 C5.17187563,360.658854 5.26432262,360.436199 5.32421875,360.121094 C5.38411488,359.805988 5.46354117,359.476564 5.5625,359.132812 C5.66145883,358.789061 5.82291555,358.507814 6.046875,358.289062 C6.25000102,358.096353 6.48437367,358 6.75,358 C7.18750219,358 7.58072742,358.084635 7.9296875,358.253906 C8.27864758,358.423178 8.54426992,358.687498 8.7265625,359.046875 C8.90885508,359.406252 9,359.890622 9,360.5 C9,360.984377 8.87500125,361.484372 8.625,362 L10,362 C10.5416694,362 11.0104147,362.197915 11.40625,362.59375 C11.8020853,362.989585 12,363.455726 12,363.992188 Z" id="" fill="#808080"></path>
            <path d="M5.5,382 C4.70312102,382 3.9583368,382.135415 3.265625,382.40625 C2.5729132,382.677085 2.02213746,383.044269 1.61328125,383.507812 C1.20442504,383.971356 1,384.468747 1,385 C1,385.427085 1.13801945,385.83854 1.4140625,386.234375 C1.69010555,386.63021 2.0781225,386.973957 2.578125,387.265625 L3.3359375,387.703125 L3.0625,388.359375 C3.23958422,388.255208 3.40104094,388.153646 3.546875,388.054688 L3.890625,387.8125 L4.3046875,387.890625 C4.71093953,387.963542 5.10937305,388 5.5,388 C6.29687898,388 7.0416632,387.864585 7.734375,387.59375 C8.4270868,387.322915 8.97786254,386.955731 9.38671875,386.492188 C9.79557496,386.028644 10,385.531253 10,385 C10,384.468747 9.79557496,383.971356 9.38671875,383.507812 C8.97786254,383.044269 8.4270868,382.677085 7.734375,382.40625 C7.0416632,382.135415 6.29687898,382 5.5,382 Z M5.5,381 C6.49479664,381 7.41536035,381.178384 8.26171875,381.535156 C9.10807715,381.891929 9.77603922,382.377601 10.265625,382.992188 C10.7552108,383.606774 11,384.276038 11,385 C11,385.723962 10.7552108,386.393226 10.265625,387.007812 C9.77603922,387.622399 9.10807715,388.108071 8.26171875,388.464844 C7.41536035,388.821616 6.49479664,389 5.5,389 C5.05208109,389 4.59375234,388.958334 4.125,388.875 C3.47916344,389.333336 2.75521234,389.666666 1.953125,389.875 C1.76562406,389.921875 1.54166797,389.963541 1.28125,390 L1.2578125,390 C1.20052055,390 1.14713566,389.979167 1.09765625,389.9375 C1.04817684,389.895833 1.01822922,389.841146 1.0078125,389.773438 C1.00260414,389.757812 1,389.740886 1,389.722656 C1,389.704427 1.00130207,389.6875 1.00390625,389.671875 C1.00651043,389.65625 1.01171871,389.640625 1.01953125,389.625 L1.0390625,389.585938 C1.04427086,389.575521 1.05338535,389.561198 1.06640625,389.542969 C1.07942715,389.524739 1.08984371,389.511719 1.09765625,389.503906 C1.10546879,389.496094 1.11718742,389.483073 1.1328125,389.464844 C1.14843758,389.446614 1.15885414,389.434896 1.1640625,389.429688 C1.1901043,389.398437 1.24999953,389.333334 1.34375,389.234375 C1.43750047,389.135416 1.50520812,389.058594 1.546875,389.003906 C1.58854188,388.949218 1.64713504,388.873698 1.72265625,388.777344 C1.79817746,388.680989 1.86328098,388.58073 1.91796875,388.476562 C1.97265652,388.372395 2.02604141,388.257813 2.078125,388.132812 C1.43228844,387.757811 0.924481016,387.296878 0.5546875,386.75 C0.184893984,386.203122 0,385.619795 0,385 C0,384.276038 0.244789219,383.606774 0.734375,382.992188 C1.22396078,382.377601 1.89192285,381.891929 2.73828125,381.535156 C3.58463965,381.178384 4.50520336,381 5.5,381 Z M11.921875,390.132812 C11.9739586,390.257813 12.0273435,390.372395 12.0820312,390.476562 C12.136719,390.58073 12.2018225,390.680989 12.2773438,390.777344 C12.352865,390.873698 12.4114581,390.949218 12.453125,391.003906 C12.4947919,391.058594 12.5624995,391.135416 12.65625,391.234375 C12.7500005,391.333334 12.8098957,391.398437 12.8359375,391.429688 C12.8411459,391.434896 12.8515624,391.446614 12.8671875,391.464844 C12.8828126,391.483073 12.8945312,391.496094 12.9023438,391.503906 C12.9101563,391.511719 12.9205729,391.524739 12.9335938,391.542969 C12.9466146,391.561198 12.9557291,391.575521 12.9609375,391.585938 L12.9804688,391.625 C12.9882813,391.640625 12.9934896,391.65625 12.9960938,391.671875 C12.9986979,391.6875 13,391.704427 13,391.722656 C13,391.740886 12.9973959,391.757812 12.9921875,391.773438 C12.9765624,391.846355 12.9427086,391.903646 12.890625,391.945312 C12.8385414,391.986979 12.7812503,392.005208 12.71875,392 C12.458332,391.963541 12.2343759,391.921875 12.046875,391.875 C11.2447877,391.666666 10.5208366,391.333336 9.875,390.875 C9.40624766,390.958334 8.94791891,391 8.5,391 C7.08853461,391 5.85938023,390.656253 4.8125,389.96875 C5.11458484,389.989583 5.34374922,390 5.5,390 C6.33854586,390 7.14322531,389.882814 7.9140625,389.648438 C8.68489969,389.414061 9.37239281,389.078127 9.9765625,388.640625 C10.6276074,388.161456 11.1276024,387.609378 11.4765625,386.984375 C11.8255226,386.359372 12,385.69792 12,385 C12,384.598956 11.9401048,384.203127 11.8203125,383.8125 C12.4921909,384.182294 13.0234355,384.645831 13.4140625,385.203125 C13.8046895,385.760419 14,386.359372 14,387 C14,387.625003 13.815106,388.209633 13.4453125,388.753906 C13.075519,389.29818 12.5677116,389.757811 11.921875,390.132812 Z" id="" fill="#808080"></path>
            <path d="M24,367.5 C24,367.364583 23.9505213,367.247396 23.8515625,367.148438 C23.7526037,367.049479 23.6354173,367 23.5,367 C23.3593743,367 23.2408859,367.049479 23.1445312,367.148438 C23.0481766,367.247396 23,367.364583 23,367.5 C23,367.640626 23.0481766,367.759114 23.1445312,367.855469 C23.2408859,367.951823 23.3593743,368 23.5,368 C23.6354173,368 23.7526037,367.951823 23.8515625,367.855469 C23.9505213,367.759114 24,367.640626 24,367.5 Z M25.25,363.5 L25.25,368.5 C25.25,368.635417 25.2005213,368.752604 25.1015625,368.851562 C25.0026037,368.950521 24.8854173,369 24.75,369 L22.5,369 C22.3645827,369 22.2473963,368.950521 22.1484375,368.851562 C22.0494787,368.752604 22,368.635417 22,368.5 L22,363.5 C22,363.364583 22.0494787,363.247396 22.1484375,363.148438 C22.2473963,363.049479 22.3645827,363 22.5,363 L24.75,363 C24.8854173,363 25.0026037,363.049479 25.1015625,363.148438 C25.2005213,363.247396 25.25,363.364583 25.25,363.5 Z M34.5,363.5 C34.5,363.947919 34.3567723,364.335936 34.0703125,364.664062 C34.1484379,364.89323 34.1875,365.091145 34.1875,365.257812 C34.2031251,365.653648 34.091147,366.010415 33.8515625,366.328125 C33.9401046,366.619793 33.9401046,366.924478 33.8515625,367.242188 C33.7734371,367.539064 33.6328135,367.783853 33.4296875,367.976562 C33.4765627,368.559899 33.3489598,369.031248 33.046875,369.390625 C32.71354,369.78646 32.2005243,369.989583 31.5078125,370 L30.5,370 C30.1562483,370 29.781252,369.959636 29.375,369.878906 C28.968748,369.798177 28.6523449,369.722657 28.4257812,369.652344 C28.1992176,369.582031 27.8854187,369.479167 27.484375,369.34375 C26.8437468,369.119791 26.4322926,369.005208 26.25,369 C26.1145827,368.994792 25.9973963,368.944011 25.8984375,368.847656 C25.7994787,368.751302 25.75,368.635417 25.75,368.5 L25.75,363.492188 C25.75,363.361979 25.7968745,363.248698 25.890625,363.152344 C25.9843755,363.055989 26.0963535,363.002604 26.2265625,362.992188 C26.3515631,362.981771 26.5494778,362.828126 26.8203125,362.53125 C27.0911472,362.234374 27.3541654,361.919272 27.609375,361.585938 C27.9635434,361.13281 28.2265616,360.820313 28.3984375,360.648438 C28.492188,360.554687 28.5729163,360.429688 28.640625,360.273438 C28.7083337,360.117187 28.7539061,359.990886 28.7773438,359.894531 C28.8007814,359.798177 28.8359373,359.640626 28.8828125,359.421875 C28.919271,359.218749 28.9518228,359.059896 28.9804688,358.945312 C29.0091147,358.830729 29.0598955,358.695313 29.1328125,358.539062 C29.2057295,358.382812 29.2942703,358.252605 29.3984375,358.148438 C29.4973963,358.049479 29.6145827,358 29.75,358 C29.9895845,358 30.2044261,358.027343 30.3945312,358.082031 C30.5846364,358.136719 30.7408848,358.204427 30.8632812,358.285156 C30.9856777,358.365886 31.0898433,358.471354 31.1757812,358.601562 C31.2617192,358.731771 31.3242186,358.848958 31.3632812,358.953125 C31.4023439,359.057292 31.4335936,359.187499 31.4570312,359.34375 C31.4804689,359.500001 31.4934896,359.617187 31.4960938,359.695312 C31.4986979,359.773438 31.5,359.874999 31.5,360 C31.5,360.197918 31.4752607,360.395832 31.4257812,360.59375 C31.3763018,360.791668 31.3268232,360.947916 31.2773438,361.0625 C31.2278643,361.177084 31.1562505,361.322916 31.0625,361.5 C31.0468749,361.53125 31.0208335,361.578125 30.984375,361.640625 C30.9479165,361.703125 30.9192709,361.760416 30.8984375,361.8125 C30.8776041,361.864584 30.8567709,361.927083 30.8359375,362 L33,362 C33.406252,362 33.757811,362.148436 34.0546875,362.445312 C34.351564,362.742189 34.5,363.093748 34.5,363.5 Z" id="" fill="#808080"></path>
            <path d="M13,458.461279 C13,458.753088 12.8978686,459.001121 12.6936027,459.205387 L11.2053872,460.693603 C11.0011213,460.897869 10.7530879,461 10.4612795,461 C10.169471,461 9.92143761,460.897869 9.71717172,460.693603 L6.5,457.476431 L3.28282828,460.693603 C3.07856239,460.897869 2.83052896,461 2.53872054,461 C2.24691212,461 1.99887869,460.897869 1.79461279,460.693603 L0.306397306,459.205387 C0.102131414,459.001121 0,458.753088 0,458.461279 C0,458.169471 0.102131414,457.921438 0.306397306,457.717172 L3.52356902,454.5 L0.306397306,451.282828 C0.102131414,451.078562 0,450.830529 0,450.538721 C0,450.246912 0.102131414,449.998879 0.306397306,449.794613 L1.79461279,448.306397 C1.99887869,448.102131 2.24691212,448 2.53872054,448 C2.83052896,448 3.07856239,448.102131 3.28282828,448.306397 L6.5,451.523569 L9.71717172,448.306397 C9.92143761,448.102131 10.169471,448 10.4612795,448 C10.7530879,448 11.0011213,448.102131 11.2053872,448.306397 L12.6936027,449.794613 C12.8978686,449.998879 13,450.246912 13,450.538721 C13,450.830529 12.8978686,451.078562 12.6936027,451.282828 L9.47643098,454.5 L12.6936027,457.717172 C12.8978686,457.921438 13,458.169471 13,458.461279 Z" id="" fill="#333333"></path>
            <g id="Group-Copy" transform="translate(64.000000, 0.000000)">
                <g id="Rectangle-3-Copy">
                    <use fill="black" fill-opacity="1" filter="url(#filter-2)" xlink:href="#path-1"></use>
                    <use fill="#D12026" fill-rule="evenodd" xlink:href="#path-1"></use>
                </g>
                <path d="M20.4335434,12.1734791 C20.5478859,12.3005263 20.5701188,12.4402761 20.5002428,12.5927328 L15.3548576,23.6171971 C15.2722769,23.7760061 15.1388794,23.8554094 14.954661,23.8554094 C14.9292515,23.8554094 14.8847857,23.8490571 14.8212621,23.8363524 C14.713272,23.8045906 14.6322806,23.7442441 14.5782856,23.6553111 C14.5242905,23.566378 14.5099979,23.4710941 14.5354074,23.3694563 L16.4125201,15.6704354 L12.5439527,16.632813 C12.5185433,16.6391654 12.4804297,16.6423415 12.4296108,16.6423415 C12.3152683,16.6423415 12.2168082,16.6074041 12.1342276,16.5375281 C12.0198851,16.4422427 11.9785954,16.3183736 12.0103572,16.165917 L13.9255839,8.30491172 C13.9509934,8.21597869 14.0018115,8.14292765 14.0780398,8.08575642 C14.1542681,8.02858519 14.2431998,8 14.3448375,8 L17.4701826,8 C17.5908775,8 17.6925137,8.03970165 17.7750944,8.11910614 C17.857675,8.19851063 17.8989647,8.29220652 17.8989647,8.40019663 C17.8989647,8.4510155 17.8830841,8.50818588 17.8513223,8.57170947 L16.2219503,12.9834009 L19.9952328,12.0496088 C20.0460517,12.036904 20.0841653,12.0305518 20.1095747,12.0305518 C20.2302695,12.0305518 20.338258,12.0781938 20.4335434,12.1734791 Z" id="" fill="#FFFFFF"></path>
            </g>
            <g id="Group-Copy-2" transform="translate(112.000000, 0.000000)">
                <g id="Rectangle-3-Copy">
                    <use fill="black" fill-opacity="1" filter="url(#filter-4)" xlink:href="#path-3"></use>
                    <use fill="#DBDBDB" fill-rule="evenodd" xlink:href="#path-3"></use>
                </g>
                <g id="arrow-up" transform="translate(11.000000, 10.000000)" stroke="#707070" stroke-width="2" stroke-linecap="round" stroke-linejoin="round">
                    <path d="M5,12 L5,0" id="Shape"></path>
                    <polyline id="Shape" points="0 5 5 0 10 5"></polyline>
                </g>
            </g>
            <path d="M14,412.2 L14,413.4 C14,413.562501 13.9422749,413.703124 13.8268229,413.821875 C13.711371,413.940626 13.5746536,414 13.4166667,414 L0.583333333,414 C0.425346432,414 0.288629049,413.940626 0.173177083,413.821875 C0.0577251172,413.703124 0,413.562501 0,413.4 L0,412.2 C0,412.037499 0.0577251172,411.896876 0.173177083,411.778125 C0.288629049,411.659374 0.425346432,411.6 0.583333333,411.6 L13.4166667,411.6 C13.5746536,411.6 13.711371,411.659374 13.8268229,411.778125 C13.9422749,411.896876 14,412.037499 14,412.2 Z M14,407.4 L14,408.6 C14,408.762501 13.9422749,408.903124 13.8268229,409.021875 C13.711371,409.140626 13.5746536,409.2 13.4166667,409.2 L0.583333333,409.2 C0.425346432,409.2 0.288629049,409.140626 0.173177083,409.021875 C0.0577251172,408.903124 0,408.762501 0,408.6 L0,407.4 C0,407.237499 0.0577251172,407.096876 0.173177083,406.978125 C0.288629049,406.859374 0.425346432,406.8 0.583333333,406.8 L13.4166667,406.8 C13.5746536,406.8 13.711371,406.859374 13.8268229,406.978125 C13.9422749,407.096876 14,407.237499 14,407.4 Z M14,402.6 L14,403.8 C14,403.962501 13.9422749,404.103124 13.8268229,404.221875 C13.711371,404.340626 13.5746536,404.4 13.4166667,404.4 L0.583333333,404.4 C0.425346432,404.4 0.288629049,404.340626 0.173177083,404.221875 C0.0577251172,404.103124 0,403.962501 0,403.8 L0,402.6 C0,402.437499 0.0577251172,402.296876 0.173177083,402.178125 C0.288629049,402.059374 0.425346432,402 0.583333333,402 L13.4166667,402 C13.5746536,402 13.711371,402.059374 13.8268229,402.178125 C13.9422749,402.296876 14,402.437499 14,402.6 Z" id="" fill="#333333"></path>
            <path d="M9.69230769,429.923077 C9.69230769,428.885411 9.32352132,427.9978 8.5859375,427.260216 C7.84835368,426.522633 6.96074237,426.153846 5.92307692,426.153846 C4.88541148,426.153846 3.99780016,426.522633 3.26021635,427.260216 C2.52263253,427.9978 2.15384615,428.885411 2.15384615,429.923077 C2.15384615,430.960742 2.52263253,431.848354 3.26021635,432.585938 C3.99780016,433.323521 4.88541148,433.692308 5.92307692,433.692308 C6.96074237,433.692308 7.84835368,433.323521 8.5859375,432.585938 C9.32352132,431.848354 9.69230769,430.960742 9.69230769,429.923077 Z M14,436.923077 C14,437.214745 13.8934306,437.467146 13.6802885,437.680288 C13.4671464,437.893431 13.214745,438 12.9230769,438 C12.6201908,438 12.3677895,437.893431 12.1658654,437.680288 L9.28004808,434.802885 C8.27603665,435.498401 7.15705745,435.846154 5.92307692,435.846154 C5.12098958,435.846154 4.35397001,435.690506 3.62199519,435.379207 C2.89002038,435.067907 2.25901707,434.647238 1.72896635,434.117187 C1.19891562,433.587137 0.778246749,432.956133 0.466947115,432.224159 C0.155647482,431.492184 0,430.725164 0,429.923077 C0,429.12099 0.155647482,428.35397 0.466947115,427.621995 C0.778246749,426.89002 1.19891562,426.259017 1.72896635,425.728966 C2.25901707,425.198916 2.89002038,424.778247 3.62199519,424.466947 C4.35397001,424.155647 5.12098958,424 5.92307692,424 C6.72516427,424 7.49218384,424.155647 8.22415865,424.466947 C8.95613347,424.778247 9.58713677,425.198916 10.1171875,425.728966 C10.6472382,426.259017 11.0679071,426.89002 11.3792067,427.621995 C11.6905064,428.35397 11.8461538,429.12099 11.8461538,429.923077 C11.8461538,431.157057 11.4984009,432.276037 10.8028846,433.280048 L13.6887019,436.165865 C13.896235,436.373398 14,436.6258 14,436.923077 Z" id="" fill="#333333"></path>
            <path d="M8.30769231,482 L8.30769231,486.153846 C8.30769231,486.730772 8.10577125,487.221152 7.70192308,487.625 C7.2980749,488.028848 6.80769519,488.230769 6.23076923,488.230769 L2.07692308,488.230769 C1.49999712,488.230769 1.0096174,488.028848 0.605769231,487.625 C0.201921058,487.221152 0,486.730772 0,486.153846 L0,478.538462 C0,477.788458 0.146032194,477.07272 0.438100962,476.391226 C0.73016973,475.709732 1.12499751,475.120195 1.62259615,474.622596 C2.1201948,474.124998 2.70973217,473.73017 3.39122596,473.438101 C4.07271975,473.146032 4.78845779,473 5.53846154,473 L6.23076923,473 C6.41827017,473 6.58052816,473.068509 6.71754808,473.205529 C6.85456799,473.342549 6.92307692,473.504807 6.92307692,473.692308 L6.92307692,475.076923 C6.92307692,475.264424 6.85456799,475.426682 6.71754808,475.563702 C6.58052816,475.700722 6.41827017,475.769231 6.23076923,475.769231 L5.53846154,475.769231 C4.77403464,475.769231 4.12139694,476.039661 3.58052885,476.580529 C3.03966076,477.121397 2.76923077,477.774035 2.76923077,478.538462 L2.76923077,478.884615 C2.76923077,479.173078 2.8701913,479.418268 3.07211538,479.620192 C3.27403947,479.822116 3.51922933,479.923077 3.80769231,479.923077 L6.23076923,479.923077 C6.80769519,479.923077 7.2980749,480.124998 7.70192308,480.528846 C8.10577125,480.932694 8.30769231,481.423074 8.30769231,482 Z M18,482 L18,486.153846 C18,486.730772 17.7980789,487.221152 17.3942308,487.625 C16.9903826,488.028848 16.5000029,488.230769 15.9230769,488.230769 L11.7692308,488.230769 C11.1923048,488.230769 10.7019251,488.028848 10.2980769,487.625 C9.89422875,487.221152 9.69230769,486.730772 9.69230769,486.153846 L9.69230769,478.538462 C9.69230769,477.788458 9.83833989,477.07272 10.1304087,476.391226 C10.4224774,475.709732 10.8173052,475.120195 11.3149038,474.622596 C11.8125025,474.124998 12.4020399,473.73017 13.0835337,473.438101 C13.7650274,473.146032 14.4807655,473 15.2307692,473 L15.9230769,473 C16.1105779,473 16.2728359,473.068509 16.4098558,473.205529 C16.5468757,473.342549 16.6153846,473.504807 16.6153846,473.692308 L16.6153846,475.076923 C16.6153846,475.264424 16.5468757,475.426682 16.4098558,475.563702 C16.2728359,475.700722 16.1105779,475.769231 15.9230769,475.769231 L15.2307692,475.769231 C14.4663423,475.769231 13.8137046,476.039661 13.2728365,476.580529 C12.7319684,477.121397 12.4615385,477.774035 12.4615385,478.538462 L12.4615385,478.884615 C12.4615385,479.173078 12.562499,479.418268 12.7644231,479.620192 C12.9663472,479.822116 13.211537,479.923077 13.5,479.923077 L15.9230769,479.923077 C16.5000029,479.923077 16.9903826,480.124998 17.3942308,480.528846 C17.7980789,480.932694 18,481.423074 18,482 Z" id="" fill="#EC1C23"></path>
        </g>
    </g>
</svg>