<?xml version="1.0" encoding="UTF-8"?>
<svg width="500px" height="500px" viewBox="0 0 500 500" version="1.1" xmlns="http://www.w3.org/2000/svg" xmlns:xlink="http://www.w3.org/1999/xlink">
    <!-- Generator: Sketch 46.2 (44496) - http://www.bohemiancoding.com/sketch -->
    <title>Sprites</title>
    <desc>Created with Sketch.</desc>
    <defs></defs>
    <g id="Layout" stroke="none" stroke-width="1" fill="none" fill-rule="evenodd">
        <g id="Sprites">
            <path d="M7.5,29.25 C8.11979477,29.25 8.64973738,29.4700499 9.08984375,29.9101562 C9.52995012,30.3502626 9.75,30.8802052 9.75,31.5 C9.75,32.1197948 9.52995012,32.6497374 9.08984375,33.0898438 C8.64973738,33.5299501 8.11979477,33.75 7.5,33.75 C6.88020523,33.75 6.35026262,33.5299501 5.91015625,33.0898438 C5.47004988,32.6497374 5.25,32.1197948 5.25,31.5 C5.25,30.8802052 5.47004988,30.3502626 5.91015625,29.9101562 C6.35026262,29.4700499 6.88020523,29.25 7.5,29.25 Z M13,26 C13.5520861,26 14.0234355,26.1953105 14.4140625,26.5859375 C14.8046895,26.9765645 15,27.4479139 15,28 L15,35 C15,35.5520861 14.8046895,36.0234355 14.4140625,36.4140625 C14.0234355,36.8046895 13.5520861,37 13,37 L2,37 C1.44791391,37 0.976564453,36.8046895 0.5859375,36.4140625 C0.195310547,36.0234355 0,35.5520861 0,35 L0,28 C0,27.4479139 0.195310547,26.9765645 0.5859375,26.5859375 C0.976564453,26.1953105 1.44791391,26 2,26 L3.75,26 L4.1484375,24.9375 C4.24739633,24.6822904 4.4283841,24.4622405 4.69140625,24.2773438 C4.9544284,24.092447 5.22395695,24 5.5,24 L9.5,24 C9.77604305,24 10.0455716,24.092447 10.3085938,24.2773438 C10.5716159,24.4622405 10.7526037,24.6822904 10.8515625,24.9375 L11.25,26 L13,26 Z M7.5,35 C8.46354648,35 9.28775699,34.6575555 9.97265625,33.9726562 C10.6575555,33.287757 11,32.4635465 11,31.5 C11,30.5364535 10.6575555,29.712243 9.97265625,29.0273438 C9.28775699,28.3424445 8.46354648,28 7.5,28 C6.53645352,28 5.71224301,28.3424445 5.02734375,29.0273438 C4.34244449,29.712243 4,30.5364535 4,31.5 C4,32.4635465 4.34244449,33.287757 5.02734375,33.9726562 C5.71224301,34.6575555 6.53645352,35 7.5,35 Z" id="" fill="#FFFFFF" opacity="0.900000036"></path>
            <path d="M10.8125,55.2421875 L0.4375,61.0078125 C0.317707734,61.0755212 0.21484418,61.0833336 0.12890625,61.03125 C0.0429683203,60.9791664 0,60.8854173 0,60.75 L0,49.25 C0,49.1145827 0.0429683203,49.0208336 0.12890625,48.96875 C0.21484418,48.9166664 0.317707734,48.9244788 0.4375,48.9921875 L10.8125,54.7578125 C10.9322923,54.8255212 10.9921875,54.9062495 10.9921875,55 C10.9921875,55.0937505 10.9322923,55.1744788 10.8125,55.2421875 Z" id="" fill="#FFFFFF" opacity="0.900000036"></path>
            <path d="M11,7.75 L11,11.5 C11,11.6354173 10.9505213,11.7526037 10.8515625,11.8515625 C10.7526037,11.9505213 10.6354173,12 10.5,12 L7.5,12 L7.5,9 L5.5,9 L5.5,12 L2.5,12 C2.36458266,12 2.24739633,11.9505213 2.1484375,11.8515625 C2.04947867,11.7526037 2,11.6354173 2,11.5 L2,7.75 C2,7.74479164 2.00130207,7.73697922 2.00390625,7.7265625 C2.00651043,7.71614578 2.0078125,7.70833336 2.0078125,7.703125 L6.5,4 L10.9921875,7.703125 C10.9973959,7.71354172 11,7.72916656 11,7.75 Z M12.7421875,7.2109375 L12.2578125,7.7890625 C12.2161456,7.83593773 12.1614587,7.86458328 12.09375,7.875 L12.0703125,7.875 C12.0026038,7.875 11.9479169,7.85677102 11.90625,7.8203125 L6.5,3.3125 L1.09375,7.8203125 C1.03124969,7.86197937 0.968750312,7.88020836 0.90625,7.875 C0.838541328,7.86458328 0.783854375,7.83593773 0.7421875,7.7890625 L0.2578125,7.2109375 C0.216145625,7.15885391 0.197916641,7.0976566 0.203125,7.02734375 C0.208333359,6.9570309 0.236978906,6.90104187 0.2890625,6.859375 L5.90625,2.1796875 C6.0729175,2.04427016 6.27083219,1.9765625 6.5,1.9765625 C6.72916781,1.9765625 6.9270825,2.04427016 7.09375,2.1796875 L9,3.7734375 L9,2.25 C9,2.17708297 9.02343727,2.11718773 9.0703125,2.0703125 C9.11718773,2.02343727 9.17708297,2 9.25,2 L10.75,2 C10.822917,2 10.8828123,2.02343727 10.9296875,2.0703125 C10.9765627,2.11718773 11,2.17708297 11,2.25 L11,5.4375 L12.7109375,6.859375 C12.7630211,6.90104187 12.7916666,6.9570309 12.796875,7.02734375 C12.8020834,7.0976566 12.7838544,7.15885391 12.7421875,7.2109375 Z" id="" fill="#FFFFFF"></path>
            <path d="M34,7.75 L34,11.5 C34,11.6354173 33.9505213,11.7526037 33.8515625,11.8515625 C33.7526037,11.9505213 33.6354173,12 33.5,12 L30.5,12 L30.5,9 L28.5,9 L28.5,12 L25.5,12 C25.3645827,12 25.2473963,11.9505213 25.1484375,11.8515625 C25.0494787,11.7526037 25,11.6354173 25,11.5 L25,7.75 C25,7.74479164 25.0013021,7.73697922 25.0039062,7.7265625 C25.0065104,7.71614578 25.0078125,7.70833336 25.0078125,7.703125 L29.5,4 L33.9921875,7.703125 C33.9973959,7.71354172 34,7.72916656 34,7.75 Z M35.7421875,7.2109375 L35.2578125,7.7890625 C35.2161456,7.83593773 35.1614587,7.86458328 35.09375,7.875 L35.0703125,7.875 C35.0026038,7.875 34.9479169,7.85677102 34.90625,7.8203125 L29.5,3.3125 L24.09375,7.8203125 C24.0312497,7.86197937 23.9687503,7.88020836 23.90625,7.875 C23.8385413,7.86458328 23.7838544,7.83593773 23.7421875,7.7890625 L23.2578125,7.2109375 C23.2161456,7.15885391 23.1979166,7.0976566 23.203125,7.02734375 C23.2083334,6.9570309 23.2369789,6.90104187 23.2890625,6.859375 L28.90625,2.1796875 C29.0729175,2.04427016 29.2708322,1.9765625 29.5,1.9765625 C29.7291678,1.9765625 29.9270825,2.04427016 30.09375,2.1796875 L32,3.7734375 L32,2.25 C32,2.17708297 32.0234373,2.11718773 32.0703125,2.0703125 C32.1171877,2.02343727 32.177083,2 32.25,2 L33.75,2 C33.822917,2 33.8828123,2.02343727 33.9296875,2.0703125 C33.9765627,2.11718773 34,2.17708297 34,2.25 L34,5.4375 L35.7109375,6.859375 C35.7630211,6.90104187 35.7916666,6.9570309 35.796875,7.02734375 C35.8020834,7.0976566 35.7838544,7.15885391 35.7421875,7.2109375 Z" id="-copy" fill="#EC1C23"></path>
            <path d="M9,78.5 C9,77.5364535 8.65755551,76.712243 7.97265625,76.0273438 C7.28775699,75.3424445 6.46354648,75 5.5,75 C4.53645352,75 3.71224301,75.3424445 3.02734375,76.0273438 C2.34244449,76.712243 2,77.5364535 2,78.5 C2,79.4635465 2.34244449,80.287757 3.02734375,80.9726562 C3.71224301,81.6575555 4.53645352,82 5.5,82 C6.46354648,82 7.28775699,81.6575555 7.97265625,80.9726562 C8.65755551,80.287757 9,79.4635465 9,78.5 Z M13,85 C13,85.2708347 12.9010427,85.5052073 12.703125,85.703125 C12.5052073,85.9010427 12.2708347,86 12,86 C11.7187486,86 11.4843759,85.9010427 11.296875,85.703125 L8.6171875,83.03125 C7.68489117,83.6770866 6.64583906,84 5.5,84 C4.75520461,84 4.04297215,83.8554702 3.36328125,83.5664062 C2.68359035,83.2773423 2.09765871,82.8867212 1.60546875,82.3945312 C1.11327879,81.9023413 0.722657695,81.3164096 0.43359375,80.6367188 C0.144529805,79.9570279 0,79.2447954 0,78.5 C0,77.7552046 0.144529805,77.0429721 0.43359375,76.3632812 C0.722657695,75.6835904 1.11327879,75.0976587 1.60546875,74.6054688 C2.09765871,74.1132788 2.68359035,73.7226577 3.36328125,73.4335938 C4.04297215,73.1445298 4.75520461,73 5.5,73 C6.24479539,73 6.95702785,73.1445298 7.63671875,73.4335938 C8.31640965,73.7226577 8.90234129,74.1132788 9.39453125,74.6054688 C9.88672121,75.0976587 10.2773423,75.6835904 10.5664062,76.3632812 C10.8554702,77.0429721 11,77.7552046 11,78.5 C11,79.6458391 10.6770866,80.6848912 10.03125,81.6171875 L12.7109375,84.296875 C12.9036468,84.4895843 13,84.723957 13,85 Z" id="" fill="#999999"></path>
            <path d="M9,102.5 C9,101.536454 8.65755551,100.712243 7.97265625,100.027344 C7.28775699,99.3424445 6.46354648,99 5.5,99 C4.53645352,99 3.71224301,99.3424445 3.02734375,100.027344 C2.34244449,100.712243 2,101.536454 2,102.5 C2,103.463546 2.34244449,104.287757 3.02734375,104.972656 C3.71224301,105.657556 4.53645352,106 5.5,106 C6.46354648,106 7.28775699,105.657556 7.97265625,104.972656 C8.65755551,104.287757 9,103.463546 9,102.5 Z M13,109 C13,109.270835 12.9010427,109.505207 12.703125,109.703125 C12.5052073,109.901043 12.2708347,110 12,110 C11.7187486,110 11.4843759,109.901043 11.296875,109.703125 L8.6171875,107.03125 C7.68489117,107.677087 6.64583906,108 5.5,108 C4.75520461,108 4.04297215,107.85547 3.36328125,107.566406 C2.68359035,107.277342 2.09765871,106.886721 1.60546875,106.394531 C1.11327879,105.902341 0.722657695,105.31641 0.43359375,104.636719 C0.144529805,103.957028 0,103.244795 0,102.5 C0,101.755205 0.144529805,101.042972 0.43359375,100.363281 C0.722657695,99.6835904 1.11327879,99.0976587 1.60546875,98.6054688 C2.09765871,98.1132788 2.68359035,97.7226577 3.36328125,97.4335938 C4.04297215,97.1445298 4.75520461,97 5.5,97 C6.24479539,97 6.95702785,97.1445298 7.63671875,97.4335938 C8.31640965,97.7226577 8.90234129,98.1132788 9.39453125,98.6054688 C9.88672121,99.0976587 10.2773423,99.6835904 10.5664062,100.363281 C10.8554702,101.042972 11,101.755205 11,102.5 C11,103.645839 10.6770866,104.684891 10.03125,105.617188 L12.7109375,108.296875 C12.9036468,108.489584 13,108.723957 13,109 Z" id="-copy" fill="#000000"></path>
            <path d="M5.28348214,133.573661 C5.28348214,133.928573 5.15792536,134.231584 4.90680804,134.482701 C4.65569071,134.733818 4.35268035,134.859375 3.99776786,134.859375 C3.64955183,134.859375 3.34821556,134.732144 3.09375,134.477679 C2.83928444,134.223213 2.71205357,133.921877 2.71205357,133.573661 C2.71205357,133.218748 2.83761035,132.915738 3.08872768,132.664621 C3.33984501,132.413503 3.64285537,132.287946 3.99776786,132.287946 C4.35268035,132.287946 4.65569071,132.413503 4.90680804,132.664621 C5.15792536,132.915738 5.28348214,133.218748 5.28348214,133.573661 Z M10.2857143,135.642857 C10.2857143,135.99777 10.1601575,136.30078 9.90904018,136.551897 C9.65792285,136.803015 9.35491249,136.928571 9,136.928571 C8.64508751,136.928571 8.34207715,136.803015 8.09095982,136.551897 C7.83984249,136.30078 7.71428571,135.99777 7.71428571,135.642857 C7.71428571,135.287945 7.83984249,134.984934 8.09095982,134.733817 C8.34207715,134.4827 8.64508751,134.357143 9,134.357143 C9.35491249,134.357143 9.65792285,134.4827 9.90904018,134.733817 C10.1601575,134.984934 10.2857143,135.287945 10.2857143,135.642857 Z M3.21428571,128.571429 C3.21428571,128.926341 3.08872893,129.229351 2.83761161,129.480469 C2.58649428,129.731586 2.28348392,129.857143 1.92857143,129.857143 C1.57365894,129.857143 1.27064858,129.731586 1.01953125,129.480469 C0.768413923,129.229351 0.642857143,128.926341 0.642857143,128.571429 C0.642857143,128.216516 0.768413923,127.913506 1.01953125,127.662388 C1.27064858,127.411271 1.57365894,127.285714 1.92857143,127.285714 C2.28348392,127.285714 2.58649428,127.411271 2.83761161,127.662388 C3.08872893,127.913506 3.21428571,128.216516 3.21428571,128.571429 Z M15.2879464,133.573661 C15.2879464,133.921877 15.1607156,134.223213 14.90625,134.477679 C14.6517844,134.732144 14.3504482,134.859375 14.0022321,134.859375 C13.6473197,134.859375 13.3443093,134.733818 13.093192,134.482701 C12.8420746,134.231584 12.7165179,133.928573 12.7165179,133.573661 C12.7165179,133.218748 12.8420746,132.915738 13.093192,132.664621 C13.3443093,132.413503 13.6473197,132.287946 14.0022321,132.287946 C14.3571446,132.287946 14.660155,132.413503 14.9112723,132.664621 C15.1623896,132.915738 15.2879464,133.218748 15.2879464,133.573661 Z M5.60491071,123.569196 C5.60491071,124.011163 5.44754622,124.389507 5.1328125,124.704241 C4.81807878,125.018975 4.43973435,125.176339 3.99776786,125.176339 C3.55580136,125.176339 3.17745693,125.018975 2.86272321,124.704241 C2.5479895,124.389507 2.390625,124.011163 2.390625,123.569196 C2.390625,123.12723 2.5479895,122.748886 2.86272321,122.434152 C3.17745693,122.119418 3.55580136,121.962054 3.99776786,121.962054 C4.43973435,121.962054 4.81807878,122.119418 5.1328125,122.434152 C5.44754622,122.748886 5.60491071,123.12723 5.60491071,123.569196 Z M17.3571429,128.571429 C17.3571429,128.926341 17.2315861,129.229351 16.9804688,129.480469 C16.7293514,129.731586 16.4263411,129.857143 16.0714286,129.857143 C15.7165161,129.857143 15.4135057,129.731586 15.1623884,129.480469 C14.9112711,129.229351 14.7857143,128.926341 14.7857143,128.571429 C14.7857143,128.216516 14.9112711,127.913506 15.1623884,127.662388 C15.4135057,127.411271 15.7165161,127.285714 16.0714286,127.285714 C16.4263411,127.285714 16.7293514,127.411271 16.9804688,127.662388 C17.2315861,127.913506 17.3571429,128.216516 17.3571429,128.571429 Z M10.9285714,121.5 C10.9285714,122.035717 10.7410733,122.49107 10.3660714,122.866071 C9.99106955,123.241073 9.53571696,123.428571 9,123.428571 C8.46428304,123.428571 8.00893045,123.241073 7.63392857,122.866071 C7.2589267,122.49107 7.07142857,122.035717 7.07142857,121.5 C7.07142857,120.964283 7.2589267,120.50893 7.63392857,120.133929 C8.00893045,119.758927 8.46428304,119.571429 9,119.571429 C9.53571696,119.571429 9.99106955,119.758927 10.3660714,120.133929 C10.7410733,120.50893 10.9285714,120.964283 10.9285714,121.5 Z M16.2522321,123.569196 C16.2522321,124.191967 16.0312522,124.722654 15.5892857,125.161272 C15.1473192,125.599891 14.6183067,125.819196 14.0022321,125.819196 C13.3794612,125.819196 12.8487745,125.599891 12.4101563,125.161272 C11.971538,124.722654 11.7522321,124.191967 11.7522321,123.569196 C11.7522321,122.953122 11.971538,122.424109 12.4101563,121.982143 C12.8487745,121.540176 13.3794612,121.319196 14.0022321,121.319196 C14.6183067,121.319196 15.1473192,121.540176 15.5892857,121.982143 C16.0312522,122.424109 16.2522321,122.953122 16.2522321,123.569196 Z" id="" fill="#EC1C23"></path>
            <path d="M8.3984375,154.75 C8.3984375,154.817709 8.37239609,154.877604 8.3203125,154.929688 L4.6796875,158.570312 C4.62760391,158.622396 4.56770867,158.648438 4.5,158.648438 C4.43229133,158.648438 4.37239609,158.622396 4.3203125,158.570312 L0.6796875,154.929688 C0.627603906,154.877604 0.6015625,154.817709 0.6015625,154.75 C0.6015625,154.682291 0.627603906,154.622396 0.6796875,154.570312 L1.0703125,154.179688 C1.12239609,154.127604 1.18229133,154.101562 1.25,154.101562 C1.31770867,154.101562 1.37760391,154.127604 1.4296875,154.179688 L4.5,157.25 L7.5703125,154.179688 C7.62239609,154.127604 7.68229133,154.101562 7.75,154.101562 C7.81770867,154.101562 7.87760391,154.127604 7.9296875,154.179688 L8.3203125,154.570312 C8.37239609,154.622396 8.3984375,154.682291 8.3984375,154.75 Z M8.3984375,151.75 C8.3984375,151.817709 8.37239609,151.877604 8.3203125,151.929688 L4.6796875,155.570312 C4.62760391,155.622396 4.56770867,155.648438 4.5,155.648438 C4.43229133,155.648438 4.37239609,155.622396 4.3203125,155.570312 L0.6796875,151.929688 C0.627603906,151.877604 0.6015625,151.817709 0.6015625,151.75 C0.6015625,151.682291 0.627603906,151.622396 0.6796875,151.570312 L1.0703125,151.179688 C1.12239609,151.127604 1.18229133,151.101562 1.25,151.101562 C1.31770867,151.101562 1.37760391,151.127604 1.4296875,151.179688 L4.5,154.25 L7.5703125,151.179688 C7.62239609,151.127604 7.68229133,151.101562 7.75,151.101562 C7.81770867,151.101562 7.87760391,151.127604 7.9296875,151.179688 L8.3203125,151.570312 C8.37239609,151.622396 8.3984375,151.682291 8.3984375,151.75 Z" id="" fill="#BFBFBF"></path>
            <rect id="Rectangle-18" fill="#3B5998" x="0" y="172" width="24" height="24"></rect>
            <path d="M15.4921875,177.09375 L15.4921875,179.15625 L14.265625,179.15625 C13.8177061,179.15625 13.5156258,179.249999 13.359375,179.4375 C13.2031242,179.625001 13.125,179.906248 13.125,180.28125 L13.125,181.757812 L15.4140625,181.757812 L15.109375,184.070312 L13.125,184.070312 L13.125,190 L10.734375,190 L10.734375,184.070312 L8.7421875,184.070312 L8.7421875,181.757812 L10.734375,181.757812 L10.734375,180.054688 C10.734375,179.085933 11.0052056,178.334638 11.546875,177.800781 C12.0885444,177.266924 12.8098913,177 13.7109375,177 C14.4765663,177 15.0703104,177.03125 15.4921875,177.09375 Z" id="" fill="#FFFFFF"></path>
            <rect id="Rectangle-18-Copy" fill="#D34836" x="32" y="172" width="24" height="24"></rect>
            <path d="M46.2265625,184.132812 C46.2265625,185.216151 46.0000023,186.180985 45.546875,187.027344 C45.0937477,187.873702 44.4479209,188.535154 43.609375,189.011719 C42.7708291,189.488284 41.8099012,189.726562 40.7265625,189.726562 C39.950517,189.726562 39.2083369,189.575522 38.5,189.273438 C37.7916631,188.971353 37.1822942,188.565107 36.671875,188.054688 C36.1614558,187.544268 35.7552098,186.934899 35.453125,186.226562 C35.1510402,185.518226 35,184.776046 35,184 C35,183.223954 35.1510402,182.481774 35.453125,181.773438 C35.7552098,181.065101 36.1614558,180.455732 36.671875,179.945312 C37.1822942,179.434893 37.7916631,179.028647 38.5,178.726562 C39.2083369,178.424478 39.950517,178.273438 40.7265625,178.273438 C42.2161533,178.273438 43.4947863,178.773433 44.5625,179.773438 L43.0078125,181.265625 C42.3984345,180.67708 41.6380254,180.382812 40.7265625,180.382812 C40.0859343,180.382812 39.4934923,180.544269 38.9492188,180.867188 C38.4049452,181.190106 37.9739599,181.628903 37.65625,182.183594 C37.3385401,182.738284 37.1796875,183.343747 37.1796875,184 C37.1796875,184.656253 37.3385401,185.261716 37.65625,185.816406 C37.9739599,186.371097 38.4049452,186.809894 38.9492188,187.132812 C39.4934923,187.455731 40.0859343,187.617188 40.7265625,187.617188 C41.1588563,187.617188 41.5559878,187.557292 41.9179688,187.4375 C42.2799497,187.317708 42.5781238,187.16797 42.8125,186.988281 C43.0468762,186.808593 43.2513012,186.604168 43.4257812,186.375 C43.6002613,186.145832 43.7278642,185.929689 43.8085938,185.726562 C43.8893233,185.523436 43.9453123,185.33073 43.9765625,185.148438 L40.7265625,185.148438 L40.7265625,183.179688 L46.1328125,183.179688 C46.1953128,183.507814 46.2265625,183.825519 46.2265625,184.132812 Z M53,183.179688 L53,184.820312 L51.3671875,184.820312 L51.3671875,186.453125 L49.7265625,186.453125 L49.7265625,184.820312 L48.09375,184.820312 L48.09375,183.179688 L49.7265625,183.179688 L49.7265625,181.546875 L51.3671875,181.546875 L51.3671875,183.179688 L53,183.179688 Z" id="" fill="#FFFFFF"></path>
            <rect id="Rectangle-18-Copy-2" fill="#0084B4" x="64" y="172" width="24" height="24"></rect>
            <path d="M82.65625,180.1875 C82.3072899,180.697919 81.8854191,181.132811 81.390625,181.492188 C81.3958334,181.565105 81.3984375,181.674478 81.3984375,181.820312 C81.3984375,182.497399 81.2994802,183.173174 81.1015625,183.847656 C80.9036448,184.522139 80.6028666,185.169268 80.1992188,185.789062 C79.7955709,186.408857 79.315107,186.957029 78.7578125,187.433594 C78.200518,187.910159 77.5286498,188.290363 76.7421875,188.574219 C75.9557252,188.858074 75.1145878,189 74.21875,189 C72.8072846,189 71.5156309,188.6224 70.34375,187.867188 C70.5260426,187.888021 70.7291655,187.898438 70.953125,187.898438 C72.1250059,187.898438 73.1692662,187.539066 74.0859375,186.820312 C73.5390598,186.809896 73.0494813,186.641929 72.6171875,186.316406 C72.1848937,185.990884 71.8880216,185.575523 71.7265625,185.070312 C71.8984384,185.096354 72.0572909,185.109375 72.203125,185.109375 C72.4270845,185.109375 72.6484364,185.080729 72.8671875,185.023438 C72.2838512,184.903645 71.8007832,184.613284 71.4179688,184.152344 C71.0351543,183.691404 70.84375,183.156253 70.84375,182.546875 L70.84375,182.515625 C71.1979184,182.713543 71.578123,182.820312 71.984375,182.835938 C71.6406233,182.60677 71.3671885,182.307294 71.1640625,181.9375 C70.9609365,181.567706 70.859375,181.166669 70.859375,180.734375 C70.859375,180.276039 70.9739572,179.851564 71.203125,179.460938 C71.8333365,180.236983 72.6002559,180.858071 73.5039062,181.324219 C74.4075566,181.790367 75.3749948,182.049479 76.40625,182.101562 C76.3645831,181.903645 76.34375,181.710938 76.34375,181.523438 C76.34375,180.825517 76.5898413,180.230471 77.0820312,179.738281 C77.5742212,179.246091 78.1692673,179 78.8671875,179 C79.5963578,179 80.210935,179.265622 80.7109375,179.796875 C81.2786487,179.687499 81.8124975,179.484376 82.3125,179.1875 C82.1197907,179.786461 81.7500027,180.249998 81.203125,180.578125 C81.6875024,180.526041 82.1718726,180.395834 82.65625,180.1875 Z" id="" fill="#FFFFFF"></path>
            <rect id="Rectangle-18-Copy-4" fill="#008FE5" x="96" y="172" width="24" height="24"></rect>
            <path d="M111.386,180.558 L106.066,187.39 L110.532,187.39 C110.784001,187.39 110.989333,187.462333 111.148,187.607 C111.306667,187.751667 111.386,187.945332 111.386,188.188 C111.386,188.421335 111.304334,188.614999 111.141,188.769 C110.977666,188.923001 110.774668,189 110.532,189 L104.386,189 C104.143332,189 103.933334,188.916001 103.756,188.748 C103.578666,188.579999 103.49,188.388668 103.49,188.174 C103.49,187.996666 103.555333,187.819334 103.686,187.642 L108.992,180.81 L104.946,180.81 C104.693999,180.81 104.488667,180.735334 104.33,180.586 C104.171333,180.436666 104.092,180.240668 104.092,179.998 C104.092,179.764666 104.173666,179.573334 104.337,179.424 C104.500334,179.274666 104.703332,179.2 104.946,179.2 L110.672,179.2 C110.896001,179.2 111.103666,179.279333 111.295,179.438 C111.486334,179.596667 111.582,179.792665 111.582,180.026 C111.582,180.203334 111.516667,180.380666 111.386,180.558 Z" id="Z" fill="#FFFFFF"></path>
            <rect id="Rectangle-18-Copy-3" fill="#999999" x="128" y="172" width="24" height="24"></rect>
            <path d="M147,182.546875 L147,188.75 C147,189.093752 146.877605,189.38802 146.632812,189.632812 C146.38802,189.877605 146.093752,190 145.75,190 L134.25,190 C133.906248,190 133.61198,189.877605 133.367188,189.632812 C133.122395,189.38802 133,189.093752 133,188.75 L133,182.546875 C133.229168,182.802085 133.492186,183.028645 133.789062,183.226562 C135.674489,184.507819 136.968746,185.406247 137.671875,185.921875 C137.968751,186.140626 138.209634,186.311197 138.394531,186.433594 C138.579428,186.55599 138.825519,186.680989 139.132812,186.808594 C139.440106,186.936199 139.726561,187 139.992188,187 L140.007812,187 C140.273439,187 140.559894,186.936199 140.867188,186.808594 C141.174481,186.680989 141.420572,186.55599 141.605469,186.433594 C141.790366,186.311197 142.031249,186.140626 142.328125,185.921875 C143.213546,185.281247 144.510408,184.382818 146.21875,183.226562 C146.515626,183.023436 146.776041,182.796876 147,182.546875 Z M147,180.25 C147,180.66146 146.872397,181.054686 146.617188,181.429688 C146.361978,181.804689 146.044273,182.124999 145.664062,182.390625 C143.705719,183.750007 142.486982,184.596352 142.007812,184.929688 C141.955729,184.966146 141.845053,185.045572 141.675781,185.167969 C141.50651,185.290365 141.365886,185.389323 141.253906,185.464844 C141.141927,185.540365 141.006511,185.625 140.847656,185.71875 C140.688801,185.8125 140.539063,185.882812 140.398438,185.929688 C140.257812,185.976563 140.127605,186 140.007812,186 L139.992188,186 C139.872395,186 139.742188,185.976563 139.601562,185.929688 C139.460937,185.882812 139.311199,185.8125 139.152344,185.71875 C138.993489,185.625 138.858073,185.540365 138.746094,185.464844 C138.634114,185.389323 138.49349,185.290365 138.324219,185.167969 C138.154947,185.045572 138.044271,184.966146 137.992188,184.929688 C137.518227,184.596352 136.835942,184.121097 135.945312,183.503906 C135.054683,182.886716 134.520834,182.515626 134.34375,182.390625 C134.020832,182.171874 133.716147,181.871096 133.429688,181.488281 C133.143228,181.105467 133,180.750002 133,180.421875 C133,180.015623 133.108072,179.677085 133.324219,179.40625 C133.540366,179.135415 133.848956,179 134.25,179 L145.75,179 C146.088543,179 146.381509,179.122395 146.628906,179.367188 C146.876303,179.61198 147,179.906248 147,180.25 Z" id="" fill="#FFFFFF"></path>
            <rect id="Rectangle-18-Copy-9" fill="#777777" x="0" y="206" width="24" height="24"></rect>
            <path d="M15.4921875,211.09375 L15.4921875,213.15625 L14.265625,213.15625 C13.8177061,213.15625 13.5156258,213.249999 13.359375,213.4375 C13.2031242,213.625001 13.125,213.906248 13.125,214.28125 L13.125,215.757812 L15.4140625,215.757812 L15.109375,218.070312 L13.125,218.070312 L13.125,224 L10.734375,224 L10.734375,218.070312 L8.7421875,218.070312 L8.7421875,215.757812 L10.734375,215.757812 L10.734375,214.054688 C10.734375,213.085933 11.0052056,212.334638 11.546875,211.800781 C12.0885444,211.266924 12.8098913,211 13.7109375,211 C14.4765663,211 15.0703104,211.03125 15.4921875,211.09375 Z" id="-copy" fill="#FFFFFF"></path>
            <rect id="Rectangle-18-Copy-8" fill="#777777" x="32" y="206" width="24" height="24"></rect>
            <path d="M46.2265625,218.132812 C46.2265625,219.216151 46.0000023,220.180985 45.546875,221.027344 C45.0937477,221.873702 44.4479209,222.535154 43.609375,223.011719 C42.7708291,223.488284 41.8099012,223.726562 40.7265625,223.726562 C39.950517,223.726562 39.2083369,223.575522 38.5,223.273438 C37.7916631,222.971353 37.1822942,222.565107 36.671875,222.054688 C36.1614558,221.544268 35.7552098,220.934899 35.453125,220.226562 C35.1510402,219.518226 35,218.776046 35,218 C35,217.223954 35.1510402,216.481774 35.453125,215.773438 C35.7552098,215.065101 36.1614558,214.455732 36.671875,213.945312 C37.1822942,213.434893 37.7916631,213.028647 38.5,212.726562 C39.2083369,212.424478 39.950517,212.273438 40.7265625,212.273438 C42.2161533,212.273438 43.4947863,212.773433 44.5625,213.773438 L43.0078125,215.265625 C42.3984345,214.67708 41.6380254,214.382812 40.7265625,214.382812 C40.0859343,214.382812 39.4934923,214.544269 38.9492188,214.867188 C38.4049452,215.190106 37.9739599,215.628903 37.65625,216.183594 C37.3385401,216.738284 37.1796875,217.343747 37.1796875,218 C37.1796875,218.656253 37.3385401,219.261716 37.65625,219.816406 C37.9739599,220.371097 38.4049452,220.809894 38.9492188,221.132812 C39.4934923,221.455731 40.0859343,221.617188 40.7265625,221.617188 C41.1588563,221.617188 41.5559878,221.557292 41.9179688,221.4375 C42.2799497,221.317708 42.5781238,221.16797 42.8125,220.988281 C43.0468762,220.808593 43.2513012,220.604168 43.4257812,220.375 C43.6002613,220.145832 43.7278642,219.929689 43.8085938,219.726562 C43.8893233,219.523436 43.9453123,219.33073 43.9765625,219.148438 L40.7265625,219.148438 L40.7265625,217.179688 L46.1328125,217.179688 C46.1953128,217.507814 46.2265625,217.825519 46.2265625,218.132812 Z M53,217.179688 L53,218.820312 L51.3671875,218.820312 L51.3671875,220.453125 L49.7265625,220.453125 L49.7265625,218.820312 L48.09375,218.820312 L48.09375,217.179688 L49.7265625,217.179688 L49.7265625,215.546875 L51.3671875,215.546875 L51.3671875,217.179688 L53,217.179688 Z" id="-copy" fill="#FFFFFF"></path>
            <rect id="Rectangle-18-Copy-7" fill="#777777" x="64" y="206" width="24" height="24"></rect>
            <path d="M82.65625,214.1875 C82.3072899,214.697919 81.8854191,215.132811 81.390625,215.492188 C81.3958334,215.565105 81.3984375,215.674478 81.3984375,215.820312 C81.3984375,216.497399 81.2994802,217.173174 81.1015625,217.847656 C80.9036448,218.522139 80.6028666,219.169268 80.1992188,219.789062 C79.7955709,220.408857 79.315107,220.957029 78.7578125,221.433594 C78.200518,221.910159 77.5286498,222.290363 76.7421875,222.574219 C75.9557252,222.858074 75.1145878,223 74.21875,223 C72.8072846,223 71.5156309,222.6224 70.34375,221.867188 C70.5260426,221.888021 70.7291655,221.898438 70.953125,221.898438 C72.1250059,221.898438 73.1692662,221.539066 74.0859375,220.820312 C73.5390598,220.809896 73.0494813,220.641929 72.6171875,220.316406 C72.1848937,219.990884 71.8880216,219.575523 71.7265625,219.070312 C71.8984384,219.096354 72.0572909,219.109375 72.203125,219.109375 C72.4270845,219.109375 72.6484364,219.080729 72.8671875,219.023438 C72.2838512,218.903645 71.8007832,218.613284 71.4179688,218.152344 C71.0351543,217.691404 70.84375,217.156253 70.84375,216.546875 L70.84375,216.515625 C71.1979184,216.713543 71.578123,216.820312 71.984375,216.835938 C71.6406233,216.60677 71.3671885,216.307294 71.1640625,215.9375 C70.9609365,215.567706 70.859375,215.166669 70.859375,214.734375 C70.859375,214.276039 70.9739572,213.851564 71.203125,213.460938 C71.8333365,214.236983 72.6002559,214.858071 73.5039062,215.324219 C74.4075566,215.790367 75.3749948,216.049479 76.40625,216.101562 C76.3645831,215.903645 76.34375,215.710938 76.34375,215.523438 C76.34375,214.825517 76.5898413,214.230471 77.0820312,213.738281 C77.5742212,213.246091 78.1692673,213 78.8671875,213 C79.5963578,213 80.210935,213.265622 80.7109375,213.796875 C81.2786487,213.687499 81.8124975,213.484376 82.3125,213.1875 C82.1197907,213.786461 81.7500027,214.249998 81.203125,214.578125 C81.6875024,214.526041 82.1718726,214.395834 82.65625,214.1875 Z" id="-copy" fill="#FFFFFF"></path>
            <rect id="Rectangle-18-Copy-6" fill="#777777" x="96" y="206" width="24" height="24"></rect>
            <path d="M111.386,214.558 L106.066,221.39 L110.532,221.39 C110.784001,221.39 110.989333,221.462333 111.148,221.607 C111.306667,221.751667 111.386,221.945332 111.386,222.188 C111.386,222.421335 111.304334,222.614999 111.141,222.769 C110.977666,222.923001 110.774668,223 110.532,223 L104.386,223 C104.143332,223 103.933334,222.916001 103.756,222.748 C103.578666,222.579999 103.49,222.388668 103.49,222.174 C103.49,221.996666 103.555333,221.819334 103.686,221.642 L108.992,214.81 L104.946,214.81 C104.693999,214.81 104.488667,214.735334 104.33,214.586 C104.171333,214.436666 104.092,214.240668 104.092,213.998 C104.092,213.764666 104.173666,213.573334 104.337,213.424 C104.500334,213.274666 104.703332,213.2 104.946,213.2 L110.672,213.2 C110.896001,213.2 111.103666,213.279333 111.295,213.438 C111.486334,213.596667 111.582,213.792665 111.582,214.026 C111.582,214.203334 111.516667,214.380666 111.386,214.558 Z" id="Z-Copy" fill="#FFFFFF"></path>
            <rect id="Rectangle-18-Copy-5" fill="#777777" x="128" y="206" width="24" height="24"></rect>
            <path d="M147,216.546875 L147,222.75 C147,223.093752 146.877605,223.38802 146.632812,223.632812 C146.38802,223.877605 146.093752,224 145.75,224 L134.25,224 C133.906248,224 133.61198,223.877605 133.367188,223.632812 C133.122395,223.38802 133,223.093752 133,222.75 L133,216.546875 C133.229168,216.802085 133.492186,217.028645 133.789062,217.226562 C135.674489,218.507819 136.968746,219.406247 137.671875,219.921875 C137.968751,220.140626 138.209634,220.311197 138.394531,220.433594 C138.579428,220.55599 138.825519,220.680989 139.132812,220.808594 C139.440106,220.936199 139.726561,221 139.992188,221 L140.007812,221 C140.273439,221 140.559894,220.936199 140.867188,220.808594 C141.174481,220.680989 141.420572,220.55599 141.605469,220.433594 C141.790366,220.311197 142.031249,220.140626 142.328125,219.921875 C143.213546,219.281247 144.510408,218.382818 146.21875,217.226562 C146.515626,217.023436 146.776041,216.796876 147,216.546875 Z M147,214.25 C147,214.66146 146.872397,215.054686 146.617188,215.429688 C146.361978,215.804689 146.044273,216.124999 145.664062,216.390625 C143.705719,217.750007 142.486982,218.596352 142.007812,218.929688 C141.955729,218.966146 141.845053,219.045572 141.675781,219.167969 C141.50651,219.290365 141.365886,219.389323 141.253906,219.464844 C141.141927,219.540365 141.006511,219.625 140.847656,219.71875 C140.688801,219.8125 140.539063,219.882812 140.398438,219.929688 C140.257812,219.976563 140.127605,220 140.007812,220 L139.992188,220 C139.872395,220 139.742188,219.976563 139.601562,219.929688 C139.460937,219.882812 139.311199,219.8125 139.152344,219.71875 C138.993489,219.625 138.858073,219.540365 138.746094,219.464844 C138.634114,219.389323 138.49349,219.290365 138.324219,219.167969 C138.154947,219.045572 138.044271,218.966146 137.992188,218.929688 C137.518227,218.596352 136.835942,218.121097 135.945312,217.503906 C135.054683,216.886716 134.520834,216.515626 134.34375,216.390625 C134.020832,216.171874 133.716147,215.871096 133.429688,215.488281 C133.143228,215.105467 133,214.750002 133,214.421875 C133,214.015623 133.108072,213.677085 133.324219,213.40625 C133.540366,213.135415 133.848956,213 134.25,213 L145.75,213 C146.088543,213 146.381509,213.122395 146.628906,213.367188 C146.876303,213.61198 147,213.906248 147,214.25 Z" id="-copy" fill="#FFFFFF"></path>
        </g>
    </g>
</svg>